<?xml version="1.0" encoding="utf-8" standalone="no"?>
<!DOCTYPE svg PUBLIC "-//W3C//DTD SVG 1.1//EN"
  "http://www.w3.org/Graphics/SVG/1.1/DTD/svg11.dtd">
<!-- Created with matplotlib (https://matplotlib.org/) -->
<svg height="372.83625pt" version="1.1" viewBox="0 0 710.0875 372.83625" width="710.0875pt" xmlns="http://www.w3.org/2000/svg" xmlns:xlink="http://www.w3.org/1999/xlink">
 <defs>
  <style type="text/css">
*{stroke-linecap:butt;stroke-linejoin:round;}
  </style>
 </defs>
 <g id="figure_1">
  <g id="patch_1">
   <path d="M 0 372.83625 
L 710.0875 372.83625 
L 710.0875 0 
L 0 0 
z
" style="fill:none;"/>
  </g>
  <g id="axes_1">
   <g id="patch_2">
    <path d="M 33.2875 348.958125 
L 337.651136 348.958125 
L 337.651136 22.798125 
L 33.2875 22.798125 
z
" style="fill:#ffffff;"/>
   </g>
   <g id="matplotlib.axis_1">
    <g id="xtick_1">
     <g id="line2d_1">
      <defs>
       <path d="M 0 0 
L 0 3.5 
" id="m159ebd298f" style="stroke:#000000;stroke-width:0.8;"/>
      </defs>
      <g>
       <use style="stroke:#000000;stroke-width:0.8;" x="47.122211" xlink:href="#m159ebd298f" y="348.958125"/>
      </g>
     </g>
     <g id="text_1">
      <!-- 0 -->
      <defs>
       <path d="M 31.78125 66.40625 
Q 24.171875 66.40625 20.328125 58.90625 
Q 16.5 51.421875 16.5 36.375 
Q 16.5 21.390625 20.328125 13.890625 
Q 24.171875 6.390625 31.78125 6.390625 
Q 39.453125 6.390625 43.28125 13.890625 
Q 47.125 21.390625 47.125 36.375 
Q 47.125 51.421875 43.28125 58.90625 
Q 39.453125 66.40625 31.78125 66.40625 
z
M 31.78125 74.21875 
Q 44.046875 74.21875 50.515625 64.515625 
Q 56.984375 54.828125 56.984375 36.375 
Q 56.984375 17.96875 50.515625 8.265625 
Q 44.046875 -1.421875 31.78125 -1.421875 
Q 19.53125 -1.421875 13.0625 8.265625 
Q 6.59375 17.96875 6.59375 36.375 
Q 6.59375 54.828125 13.0625 64.515625 
Q 19.53125 74.21875 31.78125 74.21875 
z
" id="DejaVuSans-48"/>
      </defs>
      <g transform="translate(43.940961 363.556562)scale(0.1 -0.1)">
       <use xlink:href="#DejaVuSans-48"/>
      </g>
     </g>
    </g>
    <g id="xtick_2">
     <g id="line2d_2">
      <g>
       <use style="stroke:#000000;stroke-width:0.8;" x="102.516448" xlink:href="#m159ebd298f" y="348.958125"/>
      </g>
     </g>
     <g id="text_2">
      <!-- 200 -->
      <defs>
       <path d="M 19.1875 8.296875 
L 53.609375 8.296875 
L 53.609375 0 
L 7.328125 0 
L 7.328125 8.296875 
Q 12.9375 14.109375 22.625 23.890625 
Q 32.328125 33.6875 34.8125 36.53125 
Q 39.546875 41.84375 41.421875 45.53125 
Q 43.3125 49.21875 43.3125 52.78125 
Q 43.3125 58.59375 39.234375 62.25 
Q 35.15625 65.921875 28.609375 65.921875 
Q 23.96875 65.921875 18.8125 64.3125 
Q 13.671875 62.703125 7.8125 59.421875 
L 7.8125 69.390625 
Q 13.765625 71.78125 18.9375 73 
Q 24.125 74.21875 28.421875 74.21875 
Q 39.75 74.21875 46.484375 68.546875 
Q 53.21875 62.890625 53.21875 53.421875 
Q 53.21875 48.921875 51.53125 44.890625 
Q 49.859375 40.875 45.40625 35.40625 
Q 44.1875 33.984375 37.640625 27.21875 
Q 31.109375 20.453125 19.1875 8.296875 
z
" id="DejaVuSans-50"/>
      </defs>
      <g transform="translate(92.972698 363.556562)scale(0.1 -0.1)">
       <use xlink:href="#DejaVuSans-50"/>
       <use x="63.623047" xlink:href="#DejaVuSans-48"/>
       <use x="127.246094" xlink:href="#DejaVuSans-48"/>
      </g>
     </g>
    </g>
    <g id="xtick_3">
     <g id="line2d_3">
      <g>
       <use style="stroke:#000000;stroke-width:0.8;" x="157.910685" xlink:href="#m159ebd298f" y="348.958125"/>
      </g>
     </g>
     <g id="text_3">
      <!-- 400 -->
      <defs>
       <path d="M 37.796875 64.3125 
L 12.890625 25.390625 
L 37.796875 25.390625 
z
M 35.203125 72.90625 
L 47.609375 72.90625 
L 47.609375 25.390625 
L 58.015625 25.390625 
L 58.015625 17.1875 
L 47.609375 17.1875 
L 47.609375 0 
L 37.796875 0 
L 37.796875 17.1875 
L 4.890625 17.1875 
L 4.890625 26.703125 
z
" id="DejaVuSans-52"/>
      </defs>
      <g transform="translate(148.366935 363.556562)scale(0.1 -0.1)">
       <use xlink:href="#DejaVuSans-52"/>
       <use x="63.623047" xlink:href="#DejaVuSans-48"/>
       <use x="127.246094" xlink:href="#DejaVuSans-48"/>
      </g>
     </g>
    </g>
    <g id="xtick_4">
     <g id="line2d_4">
      <g>
       <use style="stroke:#000000;stroke-width:0.8;" x="213.304922" xlink:href="#m159ebd298f" y="348.958125"/>
      </g>
     </g>
     <g id="text_4">
      <!-- 600 -->
      <defs>
       <path d="M 33.015625 40.375 
Q 26.375 40.375 22.484375 35.828125 
Q 18.609375 31.296875 18.609375 23.390625 
Q 18.609375 15.53125 22.484375 10.953125 
Q 26.375 6.390625 33.015625 6.390625 
Q 39.65625 6.390625 43.53125 10.953125 
Q 47.40625 15.53125 47.40625 23.390625 
Q 47.40625 31.296875 43.53125 35.828125 
Q 39.65625 40.375 33.015625 40.375 
z
M 52.59375 71.296875 
L 52.59375 62.3125 
Q 48.875 64.0625 45.09375 64.984375 
Q 41.3125 65.921875 37.59375 65.921875 
Q 27.828125 65.921875 22.671875 59.328125 
Q 17.53125 52.734375 16.796875 39.40625 
Q 19.671875 43.65625 24.015625 45.921875 
Q 28.375 48.1875 33.59375 48.1875 
Q 44.578125 48.1875 50.953125 41.515625 
Q 57.328125 34.859375 57.328125 23.390625 
Q 57.328125 12.15625 50.6875 5.359375 
Q 44.046875 -1.421875 33.015625 -1.421875 
Q 20.359375 -1.421875 13.671875 8.265625 
Q 6.984375 17.96875 6.984375 36.375 
Q 6.984375 53.65625 15.1875 63.9375 
Q 23.390625 74.21875 37.203125 74.21875 
Q 40.921875 74.21875 44.703125 73.484375 
Q 48.484375 72.75 52.59375 71.296875 
z
" id="DejaVuSans-54"/>
      </defs>
      <g transform="translate(203.761172 363.556562)scale(0.1 -0.1)">
       <use xlink:href="#DejaVuSans-54"/>
       <use x="63.623047" xlink:href="#DejaVuSans-48"/>
       <use x="127.246094" xlink:href="#DejaVuSans-48"/>
      </g>
     </g>
    </g>
    <g id="xtick_5">
     <g id="line2d_5">
      <g>
       <use style="stroke:#000000;stroke-width:0.8;" x="268.69916" xlink:href="#m159ebd298f" y="348.958125"/>
      </g>
     </g>
     <g id="text_5">
      <!-- 800 -->
      <defs>
       <path d="M 31.78125 34.625 
Q 24.75 34.625 20.71875 30.859375 
Q 16.703125 27.09375 16.703125 20.515625 
Q 16.703125 13.921875 20.71875 10.15625 
Q 24.75 6.390625 31.78125 6.390625 
Q 38.8125 6.390625 42.859375 10.171875 
Q 46.921875 13.96875 46.921875 20.515625 
Q 46.921875 27.09375 42.890625 30.859375 
Q 38.875 34.625 31.78125 34.625 
z
M 21.921875 38.8125 
Q 15.578125 40.375 12.03125 44.71875 
Q 8.5 49.078125 8.5 55.328125 
Q 8.5 64.0625 14.71875 69.140625 
Q 20.953125 74.21875 31.78125 74.21875 
Q 42.671875 74.21875 48.875 69.140625 
Q 55.078125 64.0625 55.078125 55.328125 
Q 55.078125 49.078125 51.53125 44.71875 
Q 48 40.375 41.703125 38.8125 
Q 48.828125 37.15625 52.796875 32.3125 
Q 56.78125 27.484375 56.78125 20.515625 
Q 56.78125 9.90625 50.3125 4.234375 
Q 43.84375 -1.421875 31.78125 -1.421875 
Q 19.734375 -1.421875 13.25 4.234375 
Q 6.78125 9.90625 6.78125 20.515625 
Q 6.78125 27.484375 10.78125 32.3125 
Q 14.796875 37.15625 21.921875 38.8125 
z
M 18.3125 54.390625 
Q 18.3125 48.734375 21.84375 45.5625 
Q 25.390625 42.390625 31.78125 42.390625 
Q 38.140625 42.390625 41.71875 45.5625 
Q 45.3125 48.734375 45.3125 54.390625 
Q 45.3125 60.0625 41.71875 63.234375 
Q 38.140625 66.40625 31.78125 66.40625 
Q 25.390625 66.40625 21.84375 63.234375 
Q 18.3125 60.0625 18.3125 54.390625 
z
" id="DejaVuSans-56"/>
      </defs>
      <g transform="translate(259.15541 363.556562)scale(0.1 -0.1)">
       <use xlink:href="#DejaVuSans-56"/>
       <use x="63.623047" xlink:href="#DejaVuSans-48"/>
       <use x="127.246094" xlink:href="#DejaVuSans-48"/>
      </g>
     </g>
    </g>
    <g id="xtick_6">
     <g id="line2d_6">
      <g>
       <use style="stroke:#000000;stroke-width:0.8;" x="324.093397" xlink:href="#m159ebd298f" y="348.958125"/>
      </g>
     </g>
     <g id="text_6">
      <!-- 1000 -->
      <defs>
       <path d="M 12.40625 8.296875 
L 28.515625 8.296875 
L 28.515625 63.921875 
L 10.984375 60.40625 
L 10.984375 69.390625 
L 28.421875 72.90625 
L 38.28125 72.90625 
L 38.28125 8.296875 
L 54.390625 8.296875 
L 54.390625 0 
L 12.40625 0 
z
" id="DejaVuSans-49"/>
      </defs>
      <g transform="translate(311.368397 363.556562)scale(0.1 -0.1)">
       <use xlink:href="#DejaVuSans-49"/>
       <use x="63.623047" xlink:href="#DejaVuSans-48"/>
       <use x="127.246094" xlink:href="#DejaVuSans-48"/>
       <use x="190.869141" xlink:href="#DejaVuSans-48"/>
      </g>
     </g>
    </g>
   </g>
   <g id="matplotlib.axis_2">
    <g id="ytick_1">
     <g id="line2d_7">
      <defs>
       <path d="M 0 0 
L -3.5 0 
" id="m458c41ec67" style="stroke:#000000;stroke-width:0.8;"/>
      </defs>
      <g>
       <use style="stroke:#000000;stroke-width:0.8;" x="33.2875" xlink:href="#m458c41ec67" y="334.13267"/>
      </g>
     </g>
     <g id="text_7">
      <!-- 0 -->
      <g transform="translate(19.925 337.931889)scale(0.1 -0.1)">
       <use xlink:href="#DejaVuSans-48"/>
      </g>
     </g>
    </g>
    <g id="ytick_2">
     <g id="line2d_8">
      <g>
       <use style="stroke:#000000;stroke-width:0.8;" x="33.2875" xlink:href="#m458c41ec67" y="287.557208"/>
      </g>
     </g>
     <g id="text_8">
      <!-- 100 -->
      <g transform="translate(7.2 291.356427)scale(0.1 -0.1)">
       <use xlink:href="#DejaVuSans-49"/>
       <use x="63.623047" xlink:href="#DejaVuSans-48"/>
       <use x="127.246094" xlink:href="#DejaVuSans-48"/>
      </g>
     </g>
    </g>
    <g id="ytick_3">
     <g id="line2d_9">
      <g>
       <use style="stroke:#000000;stroke-width:0.8;" x="33.2875" xlink:href="#m458c41ec67" y="240.981746"/>
      </g>
     </g>
     <g id="text_9">
      <!-- 200 -->
      <g transform="translate(7.2 244.780964)scale(0.1 -0.1)">
       <use xlink:href="#DejaVuSans-50"/>
       <use x="63.623047" xlink:href="#DejaVuSans-48"/>
       <use x="127.246094" xlink:href="#DejaVuSans-48"/>
      </g>
     </g>
    </g>
    <g id="ytick_4">
     <g id="line2d_10">
      <g>
       <use style="stroke:#000000;stroke-width:0.8;" x="33.2875" xlink:href="#m458c41ec67" y="194.406283"/>
      </g>
     </g>
     <g id="text_10">
      <!-- 300 -->
      <defs>
       <path d="M 40.578125 39.3125 
Q 47.65625 37.796875 51.625 33 
Q 55.609375 28.21875 55.609375 21.1875 
Q 55.609375 10.40625 48.1875 4.484375 
Q 40.765625 -1.421875 27.09375 -1.421875 
Q 22.515625 -1.421875 17.65625 -0.515625 
Q 12.796875 0.390625 7.625 2.203125 
L 7.625 11.71875 
Q 11.71875 9.328125 16.59375 8.109375 
Q 21.484375 6.890625 26.8125 6.890625 
Q 36.078125 6.890625 40.9375 10.546875 
Q 45.796875 14.203125 45.796875 21.1875 
Q 45.796875 27.640625 41.28125 31.265625 
Q 36.765625 34.90625 28.71875 34.90625 
L 20.21875 34.90625 
L 20.21875 43.015625 
L 29.109375 43.015625 
Q 36.375 43.015625 40.234375 45.921875 
Q 44.09375 48.828125 44.09375 54.296875 
Q 44.09375 59.90625 40.109375 62.90625 
Q 36.140625 65.921875 28.71875 65.921875 
Q 24.65625 65.921875 20.015625 65.03125 
Q 15.375 64.15625 9.8125 62.3125 
L 9.8125 71.09375 
Q 15.4375 72.65625 20.34375 73.4375 
Q 25.25 74.21875 29.59375 74.21875 
Q 40.828125 74.21875 47.359375 69.109375 
Q 53.90625 64.015625 53.90625 55.328125 
Q 53.90625 49.265625 50.4375 45.09375 
Q 46.96875 40.921875 40.578125 39.3125 
z
" id="DejaVuSans-51"/>
      </defs>
      <g transform="translate(7.2 198.205502)scale(0.1 -0.1)">
       <use xlink:href="#DejaVuSans-51"/>
       <use x="63.623047" xlink:href="#DejaVuSans-48"/>
       <use x="127.246094" xlink:href="#DejaVuSans-48"/>
      </g>
     </g>
    </g>
    <g id="ytick_5">
     <g id="line2d_11">
      <g>
       <use style="stroke:#000000;stroke-width:0.8;" x="33.2875" xlink:href="#m458c41ec67" y="147.830821"/>
      </g>
     </g>
     <g id="text_11">
      <!-- 400 -->
      <g transform="translate(7.2 151.630039)scale(0.1 -0.1)">
       <use xlink:href="#DejaVuSans-52"/>
       <use x="63.623047" xlink:href="#DejaVuSans-48"/>
       <use x="127.246094" xlink:href="#DejaVuSans-48"/>
      </g>
     </g>
    </g>
    <g id="ytick_6">
     <g id="line2d_12">
      <g>
       <use style="stroke:#000000;stroke-width:0.8;" x="33.2875" xlink:href="#m458c41ec67" y="101.255358"/>
      </g>
     </g>
     <g id="text_12">
      <!-- 500 -->
      <defs>
       <path d="M 10.796875 72.90625 
L 49.515625 72.90625 
L 49.515625 64.59375 
L 19.828125 64.59375 
L 19.828125 46.734375 
Q 21.96875 47.46875 24.109375 47.828125 
Q 26.265625 48.1875 28.421875 48.1875 
Q 40.625 48.1875 47.75 41.5 
Q 54.890625 34.8125 54.890625 23.390625 
Q 54.890625 11.625 47.5625 5.09375 
Q 40.234375 -1.421875 26.90625 -1.421875 
Q 22.3125 -1.421875 17.546875 -0.640625 
Q 12.796875 0.140625 7.71875 1.703125 
L 7.71875 11.625 
Q 12.109375 9.234375 16.796875 8.0625 
Q 21.484375 6.890625 26.703125 6.890625 
Q 35.15625 6.890625 40.078125 11.328125 
Q 45.015625 15.765625 45.015625 23.390625 
Q 45.015625 31 40.078125 35.4375 
Q 35.15625 39.890625 26.703125 39.890625 
Q 22.75 39.890625 18.8125 39.015625 
Q 14.890625 38.140625 10.796875 36.28125 
z
" id="DejaVuSans-53"/>
      </defs>
      <g transform="translate(7.2 105.054577)scale(0.1 -0.1)">
       <use xlink:href="#DejaVuSans-53"/>
       <use x="63.623047" xlink:href="#DejaVuSans-48"/>
       <use x="127.246094" xlink:href="#DejaVuSans-48"/>
      </g>
     </g>
    </g>
    <g id="ytick_7">
     <g id="line2d_13">
      <g>
       <use style="stroke:#000000;stroke-width:0.8;" x="33.2875" xlink:href="#m458c41ec67" y="54.679896"/>
      </g>
     </g>
     <g id="text_13">
      <!-- 600 -->
      <g transform="translate(7.2 58.479114)scale(0.1 -0.1)">
       <use xlink:href="#DejaVuSans-54"/>
       <use x="63.623047" xlink:href="#DejaVuSans-48"/>
       <use x="127.246094" xlink:href="#DejaVuSans-48"/>
      </g>
     </g>
    </g>
   </g>
   <g id="line2d_14">
    <path clip-path="url(#p689294b579)" d="M 47.122211 334.13267 
L 47.399182 37.62358 
L 47.676153 334.13267 
L 47.953124 235.295006 
L 48.230095 334.13267 
L 48.507067 274.828511 
L 48.784038 334.13267 
L 49.061009 291.770884 
L 49.33798 334.13267 
L 49.614951 301.18288 
L 49.891923 334.13267 
L 50.168894 307.171977 
L 50.445865 334.13267 
L 50.722836 311.317975 
L 50.999807 334.13267 
L 51.276779 314.358112 
L 51.55375 334.13267 
L 51.830721 316.682694 
L 52.107692 334.13267 
L 52.384663 318.517684 
L 52.661634 334.13267 
L 52.938606 320.002965 
L 53.215577 334.13267 
L 53.492548 321.229767 
L 53.769519 334.13267 
L 54.04649 322.260124 
L 54.323462 334.13267 
L 54.600433 323.13769 
L 54.877404 334.13267 
L 55.154375 323.894078 
L 55.431346 334.13267 
L 55.708318 324.55274 
L 55.985289 334.13267 
L 56.26226 325.131446 
L 56.539231 334.13267 
L 56.816202 325.643901 
L 57.093173 334.13267 
L 57.370145 326.10085 
L 57.647116 334.13267 
L 57.924087 326.510831 
L 58.201058 334.13267 
L 58.478029 326.880717 
L 58.755001 334.13267 
L 59.031972 327.216104 
L 59.308943 334.13267 
L 59.585914 327.521591 
L 59.862885 334.13267 
L 60.139856 327.800995 
L 60.416828 334.13267 
L 60.693799 328.057509 
L 60.97077 334.13267 
L 61.247741 328.293827 
L 61.524712 334.13267 
L 61.801684 328.512235 
L 62.078655 334.13267 
L 62.355626 328.714686 
L 62.632597 334.13267 
L 62.909568 328.90286 
L 63.18654 334.13267 
L 63.463511 329.078209 
L 63.740482 334.13267 
L 64.017453 329.241994 
L 64.294424 334.13267 
L 64.571395 329.395316 
L 64.848367 334.13267 
L 65.125338 329.539142 
L 65.402309 334.13267 
L 65.67928 329.674321 
L 65.956251 334.13267 
L 66.233223 329.801605 
L 66.510194 334.13267 
L 66.787165 329.921662 
L 67.064136 334.13267 
L 67.341107 330.035084 
L 67.618079 334.13267 
L 67.89505 330.142404 
L 68.172021 334.13267 
L 68.448992 330.244096 
L 68.725963 334.13267 
L 69.002934 330.340587 
L 69.279906 334.13267 
L 69.556877 330.432263 
L 69.833848 334.13267 
L 70.110819 330.519472 
L 70.38779 334.13267 
L 70.664762 330.602529 
L 70.941733 334.13267 
L 71.218704 330.68172 
L 71.495675 334.13267 
L 71.772646 330.757305 
L 72.049617 334.13267 
L 72.326589 330.829523 
L 72.60356 334.13267 
L 72.880531 330.898591 
L 73.157502 334.13267 
L 73.434473 330.964706 
L 73.711445 334.13267 
L 73.988416 331.028053 
L 74.265387 334.13267 
L 74.542358 331.088798 
L 74.819329 334.13267 
L 75.096301 331.147095 
L 75.373272 334.13267 
L 75.650243 331.203089 
L 75.927214 334.13267 
L 76.204185 331.256909 
L 76.481156 334.13267 
L 76.758128 331.308678 
L 77.035099 334.13267 
L 77.31207 331.358508 
L 77.589041 334.13267 
L 77.866012 331.406505 
L 78.142984 334.13267 
L 78.419955 331.452765 
L 78.696926 334.13267 
L 78.973897 331.497379 
L 79.250868 334.13267 
L 79.52784 331.540431 
L 79.804811 334.13267 
L 80.081782 331.582 
L 80.358753 334.13267 
L 80.635724 331.62216 
L 80.912695 334.13267 
L 81.189667 331.660978 
L 81.466638 334.13267 
L 81.743609 331.698519 
L 82.02058 334.13267 
L 82.297551 331.734844 
L 82.574523 334.13267 
L 82.851494 331.770009 
L 83.128465 334.13267 
L 83.405436 331.804067 
L 83.682407 334.13267 
L 83.959378 331.837067 
L 84.23635 334.13267 
L 84.513321 331.869057 
L 84.790292 334.13267 
L 85.067263 331.900081 
L 85.344234 334.13267 
L 85.621206 331.93018 
L 85.898177 334.13267 
L 86.175148 331.959394 
L 86.452119 334.13267 
L 86.72909 331.987759 
L 87.006062 334.13267 
L 87.283033 332.015311 
L 87.560004 334.13267 
L 87.836975 332.042083 
L 88.113946 334.13267 
L 88.390917 332.068105 
L 88.667889 334.13267 
L 88.94486 332.093408 
L 89.221831 334.13267 
L 89.498802 332.11802 
L 89.775773 334.13267 
L 90.052745 332.141968 
L 90.329716 334.13267 
L 90.606687 332.165275 
L 90.883658 334.13267 
L 91.160629 332.187968 
L 91.437601 334.13267 
L 91.714572 332.210068 
L 91.991543 334.13267 
L 92.268514 332.231597 
L 92.545485 334.13267 
L 92.822456 332.252576 
L 93.099428 334.13267 
L 93.376399 332.273024 
L 93.65337 334.13267 
L 93.930341 332.29296 
L 94.207312 334.13267 
L 94.484284 332.312403 
L 94.761255 334.13267 
L 95.038226 332.331368 
L 95.315197 334.13267 
L 95.592168 332.349873 
L 95.869139 334.13267 
L 96.146111 332.367932 
L 96.423082 334.13267 
L 96.700053 332.385561 
L 96.977024 334.13267 
L 97.253995 332.402773 
L 97.530967 334.13267 
L 97.807938 332.419583 
L 98.084909 334.13267 
L 98.36188 332.436003 
L 98.638851 334.13267 
L 98.915823 332.452045 
L 99.192794 334.13267 
L 99.469765 332.467722 
L 99.746736 334.13267 
L 100.023707 332.483044 
L 100.300678 334.13267 
L 100.57765 332.498023 
L 100.854621 334.13267 
L 101.131592 332.512669 
L 101.408563 334.13267 
L 101.685534 332.526992 
L 101.962506 334.13267 
L 102.239477 332.541002 
L 102.516448 334.13267 
L 102.793419 332.554708 
L 103.07039 334.13267 
L 103.347362 332.568118 
L 103.624333 334.13267 
L 103.901304 332.581242 
L 104.178275 334.13267 
L 104.455246 332.594087 
L 104.732217 334.13267 
L 105.009189 332.606661 
L 105.28616 334.13267 
L 105.563131 332.618972 
L 105.840102 334.13267 
L 106.117073 332.631028 
L 106.394045 334.13267 
L 106.671016 332.642834 
L 106.947987 334.13267 
L 107.224958 332.654398 
L 107.501929 334.13267 
L 107.7789 332.665727 
L 108.055872 334.13267 
L 108.332843 332.676827 
L 108.609814 334.13267 
L 108.886785 332.687703 
L 109.163756 334.13267 
L 109.440728 332.698361 
L 109.717699 334.13267 
L 109.99467 332.708808 
L 110.271641 334.13267 
L 110.548612 332.719048 
L 110.825584 334.13267 
L 111.102555 332.729087 
L 111.379526 334.13267 
L 111.656497 332.73893 
L 111.933468 334.13267 
L 112.210439 332.748581 
L 112.487411 334.13267 
L 112.764382 332.758046 
L 113.041353 334.13267 
L 113.318324 332.767329 
L 113.595295 334.13267 
L 113.872267 332.776434 
L 114.149238 334.13267 
L 114.426209 332.785365 
L 114.70318 334.13267 
L 114.980151 332.794127 
L 115.257123 334.13267 
L 115.534094 332.802724 
L 115.811065 334.13267 
L 116.088036 332.811159 
L 116.365007 334.13267 
L 116.641978 332.819437 
L 116.91895 334.13267 
L 117.195921 332.82756 
L 117.472892 334.13267 
L 117.749863 332.835532 
L 118.026834 334.13267 
L 118.303806 332.843357 
L 118.580777 334.13267 
L 118.857748 332.851038 
L 119.134719 334.13267 
L 119.41169 332.858577 
L 119.688661 334.13267 
L 119.965633 332.865979 
L 120.242604 334.13267 
L 120.519575 332.873246 
L 120.796546 334.13267 
L 121.073517 332.880381 
L 121.350489 334.13267 
L 121.62746 332.887387 
L 121.904431 334.13267 
L 122.181402 332.894266 
L 122.458373 334.13267 
L 122.735345 332.901021 
L 123.012316 334.13267 
L 123.289287 332.907655 
L 123.566258 334.13267 
L 123.843229 332.91417 
L 124.1202 334.13267 
L 124.397172 332.920568 
L 124.674143 334.13267 
L 124.951114 332.926852 
L 125.228085 334.13267 
L 125.505056 332.933024 
L 125.782028 334.13267 
L 126.058999 332.939086 
L 126.33597 334.13267 
L 126.612941 332.945041 
L 126.889912 334.13267 
L 127.166884 332.95089 
L 127.443855 334.13267 
L 127.720826 332.956636 
L 127.997797 334.13267 
L 128.274768 332.96228 
L 128.551739 334.13267 
L 128.828711 332.967825 
L 129.105682 334.13267 
L 129.382653 332.973271 
L 129.659624 334.13267 
L 129.936595 332.978622 
L 130.213567 334.13267 
L 130.490538 332.983878 
L 130.767509 334.13267 
L 131.04448 332.989042 
L 131.321451 334.13267 
L 131.598422 332.994114 
L 131.875394 334.13267 
L 132.152365 332.999098 
L 132.429336 334.13267 
L 132.706307 333.003993 
L 132.983278 334.13267 
L 133.26025 333.008803 
L 133.537221 334.13267 
L 133.814192 333.013527 
L 134.091163 334.13267 
L 134.368134 333.018168 
L 134.645106 334.13267 
L 134.922077 333.022727 
L 135.199048 334.13267 
L 135.476019 333.027206 
L 135.75299 334.13267 
L 136.029961 333.031605 
L 136.306933 334.13267 
L 136.583904 333.035926 
L 136.860875 334.13267 
L 137.137846 333.040171 
L 137.414817 334.13267 
L 137.691789 333.04434 
L 137.96876 334.13267 
L 138.245731 333.048434 
L 138.522702 334.13267 
L 138.799673 333.052456 
L 139.076645 334.13267 
L 139.353616 333.056405 
L 139.630587 334.13267 
L 139.907558 333.060283 
L 140.184529 334.13267 
L 140.4615 333.064092 
L 140.738472 334.13267 
L 141.015443 333.067832 
L 141.292414 334.13267 
L 141.569385 333.071503 
L 141.846356 334.13267 
L 142.123328 333.075108 
L 142.400299 334.13267 
L 142.67727 333.078648 
L 142.954241 334.13267 
L 143.231212 333.082122 
L 143.508183 334.13267 
L 143.785155 333.085532 
L 144.062126 334.13267 
L 144.339097 333.088879 
L 144.616068 334.13267 
L 144.893039 333.092164 
L 145.170011 334.13267 
L 145.446982 333.095387 
L 145.723953 334.13267 
L 146.000924 333.09855 
L 146.277895 334.13267 
L 146.554867 333.101652 
L 146.831838 334.13267 
L 147.108809 333.104696 
L 147.38578 334.13267 
L 147.662751 333.107682 
L 147.939722 334.13267 
L 148.216694 333.11061 
L 148.493665 334.13267 
L 148.770636 333.113481 
L 149.047607 334.13267 
L 149.324578 333.116296 
L 149.60155 334.13267 
L 149.878521 333.119056 
L 150.155492 334.13267 
L 150.432463 333.121761 
L 150.709434 334.13267 
L 150.986406 333.124412 
L 151.263377 334.13267 
L 151.540348 333.12701 
L 151.817319 334.13267 
L 152.09429 333.129554 
L 152.371261 334.13267 
L 152.648233 333.132047 
L 152.925204 334.13267 
L 153.202175 333.134487 
L 153.479146 334.13267 
L 153.756117 333.136877 
L 154.033089 334.13267 
L 154.31006 333.139216 
L 154.587031 334.13267 
L 154.864002 333.141505 
L 155.140973 334.13267 
L 155.417944 333.143744 
L 155.694916 334.13267 
L 155.971887 333.145935 
L 156.248858 334.13267 
L 156.525829 333.148077 
L 156.8028 334.13267 
L 157.079772 333.150171 
L 157.356743 334.13267 
L 157.633714 333.152218 
L 157.910685 334.13267 
L 158.187656 333.154218 
L 158.464628 334.13267 
L 158.741599 333.156171 
L 159.01857 334.13267 
L 159.295541 333.158077 
L 159.572512 334.13267 
L 159.849483 333.159938 
L 160.126455 334.13267 
L 160.403426 333.161754 
L 160.680397 334.13267 
L 160.957368 333.163525 
L 161.234339 334.13267 
L 161.511311 333.165251 
L 161.788282 334.13267 
L 162.065253 333.166933 
L 162.342224 334.13267 
L 162.619195 333.168571 
L 162.896167 334.13267 
L 163.173138 333.170166 
L 163.450109 334.13267 
L 163.72708 333.171717 
L 164.004051 334.13267 
L 164.281022 333.173226 
L 164.557994 334.13267 
L 164.834965 333.174692 
L 165.111936 334.13267 
L 165.388907 333.176116 
L 165.665878 334.13267 
L 165.94285 333.177498 
L 166.219821 334.13267 
L 166.496792 333.178839 
L 166.773763 334.13267 
L 167.050734 333.180138 
L 167.327705 334.13267 
L 167.604677 333.181396 
L 167.881648 334.13267 
L 168.158619 333.182614 
L 168.43559 334.13267 
L 168.712561 333.183791 
L 168.989533 334.13267 
L 169.266504 333.184927 
L 169.543475 334.13267 
L 169.820446 333.186024 
L 170.097417 334.13267 
L 170.374389 333.187081 
L 170.65136 334.13267 
L 170.928331 333.188098 
L 171.205302 334.13267 
L 171.482273 333.189076 
L 171.759244 334.13267 
L 172.036216 333.190014 
L 172.313187 334.13267 
L 172.590158 333.190914 
L 172.867129 334.13267 
L 173.1441 333.191775 
L 173.421072 334.13267 
L 173.698043 333.192597 
L 173.975014 334.13267 
L 174.251985 333.19338 
L 174.528956 334.13267 
L 174.805928 333.194125 
L 175.082899 334.13267 
L 175.35987 333.194833 
L 175.636841 334.13267 
L 175.913812 333.195502 
L 176.190783 334.13267 
L 176.467755 333.196133 
L 176.744726 334.13267 
L 177.021697 333.196726 
L 177.298668 334.13267 
L 177.575639 333.197282 
L 177.852611 334.13267 
L 178.129582 333.1978 
L 178.406553 334.13267 
L 178.683524 333.198281 
L 178.960495 334.13267 
L 179.237466 333.198724 
L 179.514438 334.13267 
L 179.791409 333.19913 
L 180.06838 334.13267 
L 180.345351 333.199499 
L 180.622322 334.13267 
L 180.899294 333.199831 
L 181.176265 334.13267 
L 181.453236 333.200126 
L 181.730207 334.13267 
L 182.007178 333.200384 
L 182.28415 334.13267 
L 182.561121 333.200605 
L 182.838092 334.13267 
L 183.115063 333.200789 
L 183.392034 334.13267 
L 183.669005 333.200936 
L 183.945977 334.13267 
L 184.222948 333.201046 
L 184.499919 334.13267 
L 184.77689 333.20112 
L 185.053861 334.13267 
L 185.330833 333.201157 
L 185.607804 334.13267 
L 185.884775 333.201157 
L 186.161746 334.13267 
L 186.438717 333.20112 
L 186.715689 334.13267 
L 186.99266 333.201046 
L 187.269631 334.13267 
L 187.546602 333.200936 
L 187.823573 334.13267 
L 188.100544 333.200789 
L 188.377516 334.13267 
L 188.654487 333.200605 
L 188.931458 334.13267 
L 189.208429 333.200384 
L 189.4854 334.13267 
L 189.762372 333.200126 
L 190.039343 334.13267 
L 190.316314 333.199831 
L 190.593285 334.13267 
L 190.870256 333.199499 
L 191.147227 334.13267 
L 191.424199 333.19913 
L 191.70117 334.13267 
L 191.978141 333.198724 
L 192.255112 334.13267 
L 192.532083 333.198281 
L 192.809055 334.13267 
L 193.086026 333.1978 
L 193.362997 334.13267 
L 193.639968 333.197282 
L 193.916939 334.13267 
L 194.193911 333.196726 
L 194.470882 334.13267 
L 194.747853 333.196133 
L 195.024824 334.13267 
L 195.301795 333.195502 
L 195.578766 334.13267 
L 195.855738 333.194833 
L 196.132709 334.13267 
L 196.40968 333.194125 
L 196.686651 334.13267 
L 196.963622 333.19338 
L 197.240594 334.13267 
L 197.517565 333.192597 
L 197.794536 334.13267 
L 198.071507 333.191775 
L 198.348478 334.13267 
L 198.62545 333.190914 
L 198.902421 334.13267 
L 199.179392 333.190014 
L 199.456363 334.13267 
L 199.733334 333.189076 
L 200.010305 334.13267 
L 200.287277 333.188098 
L 200.564248 334.13267 
L 200.841219 333.187081 
L 201.11819 334.13267 
L 201.395161 333.186024 
L 201.672133 334.13267 
L 201.949104 333.184927 
L 202.226075 334.13267 
L 202.503046 333.183791 
L 202.780017 334.13267 
L 203.056988 333.182614 
L 203.33396 334.13267 
L 203.610931 333.181396 
L 203.887902 334.13267 
L 204.164873 333.180138 
L 204.441844 334.13267 
L 204.718816 333.178839 
L 204.995787 334.13267 
L 205.272758 333.177498 
L 205.549729 334.13267 
L 205.8267 333.176116 
L 206.103672 334.13267 
L 206.380643 333.174692 
L 206.657614 334.13267 
L 206.934585 333.173226 
L 207.211556 334.13267 
L 207.488527 333.171717 
L 207.765499 334.13267 
L 208.04247 333.170166 
L 208.319441 334.13267 
L 208.596412 333.168571 
L 208.873383 334.13267 
L 209.150355 333.166933 
L 209.427326 334.13267 
L 209.704297 333.165251 
L 209.981268 334.13267 
L 210.258239 333.163525 
L 210.535211 334.13267 
L 210.812182 333.161754 
L 211.089153 334.13267 
L 211.366124 333.159938 
L 211.643095 334.13267 
L 211.920066 333.158077 
L 212.197038 334.13267 
L 212.474009 333.156171 
L 212.75098 334.13267 
L 213.027951 333.154218 
L 213.304922 334.13267 
L 213.581894 333.152218 
L 213.858865 334.13267 
L 214.135836 333.150171 
L 214.412807 334.13267 
L 214.689778 333.148077 
L 214.966749 334.13267 
L 215.243721 333.145935 
L 215.520692 334.13267 
L 215.797663 333.143744 
L 216.074634 334.13267 
L 216.351605 333.141505 
L 216.628577 334.13267 
L 216.905548 333.139216 
L 217.182519 334.13267 
L 217.45949 333.136877 
L 217.736461 334.13267 
L 218.013433 333.134487 
L 218.290404 334.13267 
L 218.567375 333.132047 
L 218.844346 334.13267 
L 219.121317 333.129554 
L 219.398288 334.13267 
L 219.67526 333.12701 
L 219.952231 334.13267 
L 220.229202 333.124412 
L 220.506173 334.13267 
L 220.783144 333.121761 
L 221.060116 334.13267 
L 221.337087 333.119056 
L 221.614058 334.13267 
L 221.891029 333.116296 
L 222.168 334.13267 
L 222.444972 333.113481 
L 222.721943 334.13267 
L 222.998914 333.11061 
L 223.275885 334.13267 
L 223.552856 333.107682 
L 223.829827 334.13267 
L 224.106799 333.104696 
L 224.38377 334.13267 
L 224.660741 333.101652 
L 224.937712 334.13267 
L 225.214683 333.09855 
L 225.491655 334.13267 
L 225.768626 333.095387 
L 226.045597 334.13267 
L 226.322568 333.092164 
L 226.599539 334.13267 
L 226.87651 333.088879 
L 227.153482 334.13267 
L 227.430453 333.085532 
L 227.707424 334.13267 
L 227.984395 333.082122 
L 228.261366 334.13267 
L 228.538338 333.078648 
L 228.815309 334.13267 
L 229.09228 333.075108 
L 229.369251 334.13267 
L 229.646222 333.071503 
L 229.923194 334.13267 
L 230.200165 333.067832 
L 230.477136 334.13267 
L 230.754107 333.064092 
L 231.031078 334.13267 
L 231.308049 333.060283 
L 231.585021 334.13267 
L 231.861992 333.056405 
L 232.138963 334.13267 
L 232.415934 333.052456 
L 232.692905 334.13267 
L 232.969877 333.048434 
L 233.246848 334.13267 
L 233.523819 333.04434 
L 233.80079 334.13267 
L 234.077761 333.040171 
L 234.354733 334.13267 
L 234.631704 333.035926 
L 234.908675 334.13267 
L 235.185646 333.031605 
L 235.462617 334.13267 
L 235.739588 333.027206 
L 236.01656 334.13267 
L 236.293531 333.022727 
L 236.570502 334.13267 
L 236.847473 333.018168 
L 237.124444 334.13267 
L 237.401416 333.013527 
L 237.678387 334.13267 
L 237.955358 333.008803 
L 238.232329 334.13267 
L 238.5093 333.003993 
L 238.786271 334.13267 
L 239.063243 332.999098 
L 239.340214 334.13267 
L 239.617185 332.994114 
L 239.894156 334.13267 
L 240.171127 332.989042 
L 240.448099 334.13267 
L 240.72507 332.983878 
L 241.002041 334.13267 
L 241.279012 332.978622 
L 241.555983 334.13267 
L 241.832955 332.973271 
L 242.109926 334.13267 
L 242.386897 332.967825 
L 242.663868 334.13267 
L 242.940839 332.96228 
L 243.21781 334.13267 
L 243.494782 332.956636 
L 243.771753 334.13267 
L 244.048724 332.95089 
L 244.325695 334.13267 
L 244.602666 332.945041 
L 244.879638 334.13267 
L 245.156609 332.939086 
L 245.43358 334.13267 
L 245.710551 332.933024 
L 245.987522 334.13267 
L 246.264494 332.926852 
L 246.541465 334.13267 
L 246.818436 332.920568 
L 247.095407 334.13267 
L 247.372378 332.91417 
L 247.649349 334.13267 
L 247.926321 332.907655 
L 248.203292 334.13267 
L 248.480263 332.901021 
L 248.757234 334.13267 
L 249.034205 332.894266 
L 249.311177 334.13267 
L 249.588148 332.887387 
L 249.865119 334.13267 
L 250.14209 332.880381 
L 250.419061 334.13267 
L 250.696032 332.873246 
L 250.973004 334.13267 
L 251.249975 332.865979 
L 251.526946 334.13267 
L 251.803917 332.858577 
L 252.080888 334.13267 
L 252.35786 332.851038 
L 252.634831 334.13267 
L 252.911802 332.843357 
L 253.188773 334.13267 
L 253.465744 332.835532 
L 253.742716 334.13267 
L 254.019687 332.82756 
L 254.296658 334.13267 
L 254.573629 332.819437 
L 254.8506 334.13267 
L 255.127571 332.811159 
L 255.404543 334.13267 
L 255.681514 332.802724 
L 255.958485 334.13267 
L 256.235456 332.794127 
L 256.512427 334.13267 
L 256.789399 332.785365 
L 257.06637 334.13267 
L 257.343341 332.776434 
L 257.620312 334.13267 
L 257.897283 332.767329 
L 258.174255 334.13267 
L 258.451226 332.758046 
L 258.728197 334.13267 
L 259.005168 332.748581 
L 259.282139 334.13267 
L 259.55911 332.73893 
L 259.836082 334.13267 
L 260.113053 332.729087 
L 260.390024 334.13267 
L 260.666995 332.719048 
L 260.943966 334.13267 
L 261.220938 332.708808 
L 261.497909 334.13267 
L 261.77488 332.698361 
L 262.051851 334.13267 
L 262.328822 332.687703 
L 262.605794 334.13267 
L 262.882765 332.676827 
L 263.159736 334.13267 
L 263.436707 332.665727 
L 263.713678 334.13267 
L 263.990649 332.654398 
L 264.267621 334.13267 
L 264.544592 332.642834 
L 264.821563 334.13267 
L 265.098534 332.631028 
L 265.375505 334.13267 
L 265.652477 332.618972 
L 265.929448 334.13267 
L 266.206419 332.606661 
L 266.48339 334.13267 
L 266.760361 332.594087 
L 267.037332 334.13267 
L 267.314304 332.581242 
L 267.591275 334.13267 
L 267.868246 332.568118 
L 268.145217 334.13267 
L 268.422188 332.554708 
L 268.69916 334.13267 
L 268.976131 332.541002 
L 269.253102 334.13267 
L 269.530073 332.526992 
L 269.807044 334.13267 
L 270.084016 332.512669 
L 270.360987 334.13267 
L 270.637958 332.498023 
L 270.914929 334.13267 
L 271.1919 332.483044 
L 271.468871 334.13267 
L 271.745843 332.467722 
L 272.022814 334.13267 
L 272.299785 332.452045 
L 272.576756 334.13267 
L 272.853727 332.436003 
L 273.130699 334.13267 
L 273.40767 332.419583 
L 273.684641 334.13267 
L 273.961612 332.402773 
L 274.238583 334.13267 
L 274.515555 332.385561 
L 274.792526 334.13267 
L 275.069497 332.367932 
L 275.346468 334.13267 
L 275.623439 332.349873 
L 275.90041 334.13267 
L 276.177382 332.331368 
L 276.454353 334.13267 
L 276.731324 332.312403 
L 277.008295 334.13267 
L 277.285266 332.29296 
L 277.562238 334.13267 
L 277.839209 332.273024 
L 278.11618 334.13267 
L 278.393151 332.252576 
L 278.670122 334.13267 
L 278.947093 332.231597 
L 279.224065 334.13267 
L 279.501036 332.210068 
L 279.778007 334.13267 
L 280.054978 332.187968 
L 280.331949 334.13267 
L 280.608921 332.165275 
L 280.885892 334.13267 
L 281.162863 332.141968 
L 281.439834 334.13267 
L 281.716805 332.11802 
L 281.993777 334.13267 
L 282.270748 332.093408 
L 282.547719 334.13267 
L 282.82469 332.068105 
L 283.101661 334.13267 
L 283.378632 332.042083 
L 283.655604 334.13267 
L 283.932575 332.015311 
L 284.209546 334.13267 
L 284.486517 331.987759 
L 284.763488 334.13267 
L 285.04046 331.959394 
L 285.317431 334.13267 
L 285.594402 331.93018 
L 285.871373 334.13267 
L 286.148344 331.900081 
L 286.425316 334.13267 
L 286.702287 331.869057 
L 286.979258 334.13267 
L 287.256229 331.837067 
L 287.5332 334.13267 
L 287.810171 331.804067 
L 288.087143 334.13267 
L 288.364114 331.770009 
L 288.641085 334.13267 
L 288.918056 331.734844 
L 289.195027 334.13267 
L 289.471999 331.698519 
L 289.74897 334.13267 
L 290.025941 331.660978 
L 290.302912 334.13267 
L 290.579883 331.62216 
L 290.856854 334.13267 
L 291.133826 331.582 
L 291.410797 334.13267 
L 291.687768 331.540431 
L 291.964739 334.13267 
L 292.24171 331.497379 
L 292.518682 334.13267 
L 292.795653 331.452765 
L 293.072624 334.13267 
L 293.349595 331.406505 
L 293.626566 334.13267 
L 293.903538 331.358508 
L 294.180509 334.13267 
L 294.45748 331.308678 
L 294.734451 334.13267 
L 295.011422 331.256909 
L 295.288393 334.13267 
L 295.565365 331.203089 
L 295.842336 334.13267 
L 296.119307 331.147095 
L 296.396278 334.13267 
L 296.673249 331.088798 
L 296.950221 334.13267 
L 297.227192 331.028053 
L 297.504163 334.13267 
L 297.781134 330.964706 
L 298.058105 334.13267 
L 298.335077 330.898591 
L 298.612048 334.13267 
L 298.889019 330.829523 
L 299.16599 334.13267 
L 299.442961 330.757305 
L 299.719932 334.13267 
L 299.996904 330.68172 
L 300.273875 334.13267 
L 300.550846 330.602529 
L 300.827817 334.13267 
L 301.104788 330.519472 
L 301.38176 334.13267 
L 301.658731 330.432263 
L 301.935702 334.13267 
L 302.212673 330.340587 
L 302.489644 334.13267 
L 302.766615 330.244096 
L 303.043587 334.13267 
L 303.320558 330.142404 
L 303.597529 334.13267 
L 303.8745 330.035084 
L 304.151471 334.13267 
L 304.428443 329.921662 
L 304.705414 334.13267 
L 304.982385 329.801605 
L 305.259356 334.13267 
L 305.536327 329.674321 
L 305.813299 334.13267 
L 306.09027 329.539142 
L 306.367241 334.13267 
L 306.644212 329.395316 
L 306.921183 334.13267 
L 307.198154 329.241994 
L 307.475126 334.13267 
L 307.752097 329.078209 
L 308.029068 334.13267 
L 308.306039 328.90286 
L 308.58301 334.13267 
L 308.859982 328.714686 
L 309.136953 334.13267 
L 309.413924 328.512235 
L 309.690895 334.13267 
L 309.967866 328.293827 
L 310.244838 334.13267 
L 310.521809 328.057509 
L 310.79878 334.13267 
L 311.075751 327.800995 
L 311.352722 334.13267 
L 311.629693 327.521591 
L 311.906665 334.13267 
L 312.183636 327.216104 
L 312.460607 334.13267 
L 312.737578 326.880717 
L 313.014549 334.13267 
L 313.291521 326.510831 
L 313.568492 334.13267 
L 313.845463 326.10085 
L 314.122434 334.13267 
L 314.399405 325.643901 
L 314.676376 334.13267 
L 314.953348 325.131446 
L 315.230319 334.13267 
L 315.50729 324.55274 
L 315.784261 334.13267 
L 316.061232 323.894078 
L 316.338204 334.13267 
L 316.615175 323.13769 
L 316.892146 334.13267 
L 317.169117 322.260124 
L 317.446088 334.13267 
L 317.72306 321.229767 
L 318.000031 334.13267 
L 318.277002 320.002965 
L 318.553973 334.13267 
L 318.830944 318.517684 
L 319.107915 334.13267 
L 319.384887 316.682694 
L 319.661858 334.13267 
L 319.938829 314.358112 
L 320.2158 334.13267 
L 320.492771 311.317975 
L 320.769743 334.13267 
L 321.046714 307.171977 
L 321.323685 334.13267 
L 321.600656 301.18288 
L 321.877627 334.13267 
L 322.154599 291.770884 
L 322.43157 334.13267 
L 322.708541 274.828511 
L 322.985512 334.13267 
L 323.262483 235.295006 
L 323.539454 334.13267 
L 323.816426 37.62358 
L 323.816426 37.62358 
" style="fill:none;stroke:#1f77b4;stroke-linecap:square;stroke-width:1.5;"/>
   </g>
   <g id="patch_3">
    <path d="M 33.2875 348.958125 
L 33.2875 22.798125 
" style="fill:none;stroke:#000000;stroke-linecap:square;stroke-linejoin:miter;stroke-width:0.8;"/>
   </g>
   <g id="patch_4">
    <path d="M 337.651136 348.958125 
L 337.651136 22.798125 
" style="fill:none;stroke:#000000;stroke-linecap:square;stroke-linejoin:miter;stroke-width:0.8;"/>
   </g>
   <g id="patch_5">
    <path d="M 33.2875 348.958125 
L 337.651136 348.958125 
" style="fill:none;stroke:#000000;stroke-linecap:square;stroke-linejoin:miter;stroke-width:0.8;"/>
   </g>
   <g id="patch_6">
    <path d="M 33.2875 22.798125 
L 337.651136 22.798125 
" style="fill:none;stroke:#000000;stroke-linecap:square;stroke-linejoin:miter;stroke-width:0.8;"/>
   </g>
   <g id="text_14">
    <!--  Le spectre du signal  -->
    <defs>
     <path id="DejaVuSans-32"/>
     <path d="M 9.8125 72.90625 
L 19.671875 72.90625 
L 19.671875 8.296875 
L 55.171875 8.296875 
L 55.171875 0 
L 9.8125 0 
z
" id="DejaVuSans-76"/>
     <path d="M 56.203125 29.59375 
L 56.203125 25.203125 
L 14.890625 25.203125 
Q 15.484375 15.921875 20.484375 11.0625 
Q 25.484375 6.203125 34.421875 6.203125 
Q 39.59375 6.203125 44.453125 7.46875 
Q 49.3125 8.734375 54.109375 11.28125 
L 54.109375 2.78125 
Q 49.265625 0.734375 44.1875 -0.34375 
Q 39.109375 -1.421875 33.890625 -1.421875 
Q 20.796875 -1.421875 13.15625 6.1875 
Q 5.515625 13.8125 5.515625 26.8125 
Q 5.515625 40.234375 12.765625 48.109375 
Q 20.015625 56 32.328125 56 
Q 43.359375 56 49.78125 48.890625 
Q 56.203125 41.796875 56.203125 29.59375 
z
M 47.21875 32.234375 
Q 47.125 39.59375 43.09375 43.984375 
Q 39.0625 48.390625 32.421875 48.390625 
Q 24.90625 48.390625 20.390625 44.140625 
Q 15.875 39.890625 15.1875 32.171875 
z
" id="DejaVuSans-101"/>
     <path d="M 44.28125 53.078125 
L 44.28125 44.578125 
Q 40.484375 46.53125 36.375 47.5 
Q 32.28125 48.484375 27.875 48.484375 
Q 21.1875 48.484375 17.84375 46.4375 
Q 14.5 44.390625 14.5 40.28125 
Q 14.5 37.15625 16.890625 35.375 
Q 19.28125 33.59375 26.515625 31.984375 
L 29.59375 31.296875 
Q 39.15625 29.25 43.1875 25.515625 
Q 47.21875 21.78125 47.21875 15.09375 
Q 47.21875 7.46875 41.1875 3.015625 
Q 35.15625 -1.421875 24.609375 -1.421875 
Q 20.21875 -1.421875 15.453125 -0.5625 
Q 10.6875 0.296875 5.421875 2 
L 5.421875 11.28125 
Q 10.40625 8.6875 15.234375 7.390625 
Q 20.0625 6.109375 24.8125 6.109375 
Q 31.15625 6.109375 34.5625 8.28125 
Q 37.984375 10.453125 37.984375 14.40625 
Q 37.984375 18.0625 35.515625 20.015625 
Q 33.0625 21.96875 24.703125 23.78125 
L 21.578125 24.515625 
Q 13.234375 26.265625 9.515625 29.90625 
Q 5.8125 33.546875 5.8125 39.890625 
Q 5.8125 47.609375 11.28125 51.796875 
Q 16.75 56 26.8125 56 
Q 31.78125 56 36.171875 55.265625 
Q 40.578125 54.546875 44.28125 53.078125 
z
" id="DejaVuSans-115"/>
     <path d="M 18.109375 8.203125 
L 18.109375 -20.796875 
L 9.078125 -20.796875 
L 9.078125 54.6875 
L 18.109375 54.6875 
L 18.109375 46.390625 
Q 20.953125 51.265625 25.265625 53.625 
Q 29.59375 56 35.59375 56 
Q 45.5625 56 51.78125 48.09375 
Q 58.015625 40.1875 58.015625 27.296875 
Q 58.015625 14.40625 51.78125 6.484375 
Q 45.5625 -1.421875 35.59375 -1.421875 
Q 29.59375 -1.421875 25.265625 0.953125 
Q 20.953125 3.328125 18.109375 8.203125 
z
M 48.6875 27.296875 
Q 48.6875 37.203125 44.609375 42.84375 
Q 40.53125 48.484375 33.40625 48.484375 
Q 26.265625 48.484375 22.1875 42.84375 
Q 18.109375 37.203125 18.109375 27.296875 
Q 18.109375 17.390625 22.1875 11.75 
Q 26.265625 6.109375 33.40625 6.109375 
Q 40.53125 6.109375 44.609375 11.75 
Q 48.6875 17.390625 48.6875 27.296875 
z
" id="DejaVuSans-112"/>
     <path d="M 48.78125 52.59375 
L 48.78125 44.1875 
Q 44.96875 46.296875 41.140625 47.34375 
Q 37.3125 48.390625 33.40625 48.390625 
Q 24.65625 48.390625 19.8125 42.84375 
Q 14.984375 37.3125 14.984375 27.296875 
Q 14.984375 17.28125 19.8125 11.734375 
Q 24.65625 6.203125 33.40625 6.203125 
Q 37.3125 6.203125 41.140625 7.25 
Q 44.96875 8.296875 48.78125 10.40625 
L 48.78125 2.09375 
Q 45.015625 0.34375 40.984375 -0.53125 
Q 36.96875 -1.421875 32.421875 -1.421875 
Q 20.0625 -1.421875 12.78125 6.34375 
Q 5.515625 14.109375 5.515625 27.296875 
Q 5.515625 40.671875 12.859375 48.328125 
Q 20.21875 56 33.015625 56 
Q 37.15625 56 41.109375 55.140625 
Q 45.0625 54.296875 48.78125 52.59375 
z
" id="DejaVuSans-99"/>
     <path d="M 18.3125 70.21875 
L 18.3125 54.6875 
L 36.8125 54.6875 
L 36.8125 47.703125 
L 18.3125 47.703125 
L 18.3125 18.015625 
Q 18.3125 11.328125 20.140625 9.421875 
Q 21.96875 7.515625 27.59375 7.515625 
L 36.8125 7.515625 
L 36.8125 0 
L 27.59375 0 
Q 17.1875 0 13.234375 3.875 
Q 9.28125 7.765625 9.28125 18.015625 
L 9.28125 47.703125 
L 2.6875 47.703125 
L 2.6875 54.6875 
L 9.28125 54.6875 
L 9.28125 70.21875 
z
" id="DejaVuSans-116"/>
     <path d="M 41.109375 46.296875 
Q 39.59375 47.171875 37.8125 47.578125 
Q 36.03125 48 33.890625 48 
Q 26.265625 48 22.1875 43.046875 
Q 18.109375 38.09375 18.109375 28.8125 
L 18.109375 0 
L 9.078125 0 
L 9.078125 54.6875 
L 18.109375 54.6875 
L 18.109375 46.1875 
Q 20.953125 51.171875 25.484375 53.578125 
Q 30.03125 56 36.53125 56 
Q 37.453125 56 38.578125 55.875 
Q 39.703125 55.765625 41.0625 55.515625 
z
" id="DejaVuSans-114"/>
     <path d="M 45.40625 46.390625 
L 45.40625 75.984375 
L 54.390625 75.984375 
L 54.390625 0 
L 45.40625 0 
L 45.40625 8.203125 
Q 42.578125 3.328125 38.25 0.953125 
Q 33.9375 -1.421875 27.875 -1.421875 
Q 17.96875 -1.421875 11.734375 6.484375 
Q 5.515625 14.40625 5.515625 27.296875 
Q 5.515625 40.1875 11.734375 48.09375 
Q 17.96875 56 27.875 56 
Q 33.9375 56 38.25 53.625 
Q 42.578125 51.265625 45.40625 46.390625 
z
M 14.796875 27.296875 
Q 14.796875 17.390625 18.875 11.75 
Q 22.953125 6.109375 30.078125 6.109375 
Q 37.203125 6.109375 41.296875 11.75 
Q 45.40625 17.390625 45.40625 27.296875 
Q 45.40625 37.203125 41.296875 42.84375 
Q 37.203125 48.484375 30.078125 48.484375 
Q 22.953125 48.484375 18.875 42.84375 
Q 14.796875 37.203125 14.796875 27.296875 
z
" id="DejaVuSans-100"/>
     <path d="M 8.5 21.578125 
L 8.5 54.6875 
L 17.484375 54.6875 
L 17.484375 21.921875 
Q 17.484375 14.15625 20.5 10.265625 
Q 23.53125 6.390625 29.59375 6.390625 
Q 36.859375 6.390625 41.078125 11.03125 
Q 45.3125 15.671875 45.3125 23.6875 
L 45.3125 54.6875 
L 54.296875 54.6875 
L 54.296875 0 
L 45.3125 0 
L 45.3125 8.40625 
Q 42.046875 3.421875 37.71875 1 
Q 33.40625 -1.421875 27.6875 -1.421875 
Q 18.265625 -1.421875 13.375 4.4375 
Q 8.5 10.296875 8.5 21.578125 
z
M 31.109375 56 
z
" id="DejaVuSans-117"/>
     <path d="M 9.421875 54.6875 
L 18.40625 54.6875 
L 18.40625 0 
L 9.421875 0 
z
M 9.421875 75.984375 
L 18.40625 75.984375 
L 18.40625 64.59375 
L 9.421875 64.59375 
z
" id="DejaVuSans-105"/>
     <path d="M 45.40625 27.984375 
Q 45.40625 37.75 41.375 43.109375 
Q 37.359375 48.484375 30.078125 48.484375 
Q 22.859375 48.484375 18.828125 43.109375 
Q 14.796875 37.75 14.796875 27.984375 
Q 14.796875 18.265625 18.828125 12.890625 
Q 22.859375 7.515625 30.078125 7.515625 
Q 37.359375 7.515625 41.375 12.890625 
Q 45.40625 18.265625 45.40625 27.984375 
z
M 54.390625 6.78125 
Q 54.390625 -7.171875 48.1875 -13.984375 
Q 42 -20.796875 29.203125 -20.796875 
Q 24.46875 -20.796875 20.265625 -20.09375 
Q 16.0625 -19.390625 12.109375 -17.921875 
L 12.109375 -9.1875 
Q 16.0625 -11.328125 19.921875 -12.34375 
Q 23.78125 -13.375 27.78125 -13.375 
Q 36.625 -13.375 41.015625 -8.765625 
Q 45.40625 -4.15625 45.40625 5.171875 
L 45.40625 9.625 
Q 42.625 4.78125 38.28125 2.390625 
Q 33.9375 0 27.875 0 
Q 17.828125 0 11.671875 7.65625 
Q 5.515625 15.328125 5.515625 27.984375 
Q 5.515625 40.671875 11.671875 48.328125 
Q 17.828125 56 27.875 56 
Q 33.9375 56 38.28125 53.609375 
Q 42.625 51.21875 45.40625 46.390625 
L 45.40625 54.6875 
L 54.390625 54.6875 
z
" id="DejaVuSans-103"/>
     <path d="M 54.890625 33.015625 
L 54.890625 0 
L 45.90625 0 
L 45.90625 32.71875 
Q 45.90625 40.484375 42.875 44.328125 
Q 39.84375 48.1875 33.796875 48.1875 
Q 26.515625 48.1875 22.3125 43.546875 
Q 18.109375 38.921875 18.109375 30.90625 
L 18.109375 0 
L 9.078125 0 
L 9.078125 54.6875 
L 18.109375 54.6875 
L 18.109375 46.1875 
Q 21.34375 51.125 25.703125 53.5625 
Q 30.078125 56 35.796875 56 
Q 45.21875 56 50.046875 50.171875 
Q 54.890625 44.34375 54.890625 33.015625 
z
" id="DejaVuSans-110"/>
     <path d="M 34.28125 27.484375 
Q 23.390625 27.484375 19.1875 25 
Q 14.984375 22.515625 14.984375 16.5 
Q 14.984375 11.71875 18.140625 8.90625 
Q 21.296875 6.109375 26.703125 6.109375 
Q 34.1875 6.109375 38.703125 11.40625 
Q 43.21875 16.703125 43.21875 25.484375 
L 43.21875 27.484375 
z
M 52.203125 31.203125 
L 52.203125 0 
L 43.21875 0 
L 43.21875 8.296875 
Q 40.140625 3.328125 35.546875 0.953125 
Q 30.953125 -1.421875 24.3125 -1.421875 
Q 15.921875 -1.421875 10.953125 3.296875 
Q 6 8.015625 6 15.921875 
Q 6 25.140625 12.171875 29.828125 
Q 18.359375 34.515625 30.609375 34.515625 
L 43.21875 34.515625 
L 43.21875 35.40625 
Q 43.21875 41.609375 39.140625 45 
Q 35.0625 48.390625 27.6875 48.390625 
Q 23 48.390625 18.546875 47.265625 
Q 14.109375 46.140625 10.015625 43.890625 
L 10.015625 52.203125 
Q 14.9375 54.109375 19.578125 55.046875 
Q 24.21875 56 28.609375 56 
Q 40.484375 56 46.34375 49.84375 
Q 52.203125 43.703125 52.203125 31.203125 
z
" id="DejaVuSans-97"/>
     <path d="M 9.421875 75.984375 
L 18.40625 75.984375 
L 18.40625 0 
L 9.421875 0 
z
" id="DejaVuSans-108"/>
    </defs>
    <g transform="translate(121.344318 16.798125)scale(0.12 -0.12)">
     <use xlink:href="#DejaVuSans-32"/>
     <use x="31.787109" xlink:href="#DejaVuSans-76"/>
     <use x="85.75" xlink:href="#DejaVuSans-101"/>
     <use x="147.273438" xlink:href="#DejaVuSans-32"/>
     <use x="179.060547" xlink:href="#DejaVuSans-115"/>
     <use x="231.160156" xlink:href="#DejaVuSans-112"/>
     <use x="294.636719" xlink:href="#DejaVuSans-101"/>
     <use x="356.160156" xlink:href="#DejaVuSans-99"/>
     <use x="411.140625" xlink:href="#DejaVuSans-116"/>
     <use x="450.349609" xlink:href="#DejaVuSans-114"/>
     <use x="489.212891" xlink:href="#DejaVuSans-101"/>
     <use x="550.736328" xlink:href="#DejaVuSans-32"/>
     <use x="582.523438" xlink:href="#DejaVuSans-100"/>
     <use x="646" xlink:href="#DejaVuSans-117"/>
     <use x="709.378906" xlink:href="#DejaVuSans-32"/>
     <use x="741.166016" xlink:href="#DejaVuSans-115"/>
     <use x="793.265625" xlink:href="#DejaVuSans-105"/>
     <use x="821.048828" xlink:href="#DejaVuSans-103"/>
     <use x="884.525391" xlink:href="#DejaVuSans-110"/>
     <use x="947.904297" xlink:href="#DejaVuSans-97"/>
     <use x="1009.183594" xlink:href="#DejaVuSans-108"/>
     <use x="1036.966797" xlink:href="#DejaVuSans-32"/>
    </g>
   </g>
  </g>
  <g id="axes_2">
   <g id="patch_7">
    <path d="M 398.523864 348.958125 
L 702.8875 348.958125 
L 702.8875 22.798125 
L 398.523864 22.798125 
z
" style="fill:#ffffff;"/>
   </g>
   <g id="matplotlib.axis_3">
    <g id="xtick_7">
     <g id="line2d_15">
      <g>
       <use style="stroke:#000000;stroke-width:0.8;" x="412.358574" xlink:href="#m159ebd298f" y="348.958125"/>
      </g>
     </g>
     <g id="text_15">
      <!-- 0 -->
      <g transform="translate(409.177324 363.556562)scale(0.1 -0.1)">
       <use xlink:href="#DejaVuSans-48"/>
      </g>
     </g>
    </g>
    <g id="xtick_8">
     <g id="line2d_16">
      <g>
       <use style="stroke:#000000;stroke-width:0.8;" x="467.752812" xlink:href="#m159ebd298f" y="348.958125"/>
      </g>
     </g>
     <g id="text_16">
      <!-- 200 -->
      <g transform="translate(458.209062 363.556562)scale(0.1 -0.1)">
       <use xlink:href="#DejaVuSans-50"/>
       <use x="63.623047" xlink:href="#DejaVuSans-48"/>
       <use x="127.246094" xlink:href="#DejaVuSans-48"/>
      </g>
     </g>
    </g>
    <g id="xtick_9">
     <g id="line2d_17">
      <g>
       <use style="stroke:#000000;stroke-width:0.8;" x="523.147049" xlink:href="#m159ebd298f" y="348.958125"/>
      </g>
     </g>
     <g id="text_17">
      <!-- 400 -->
      <g transform="translate(513.603299 363.556562)scale(0.1 -0.1)">
       <use xlink:href="#DejaVuSans-52"/>
       <use x="63.623047" xlink:href="#DejaVuSans-48"/>
       <use x="127.246094" xlink:href="#DejaVuSans-48"/>
      </g>
     </g>
    </g>
    <g id="xtick_10">
     <g id="line2d_18">
      <g>
       <use style="stroke:#000000;stroke-width:0.8;" x="578.541286" xlink:href="#m159ebd298f" y="348.958125"/>
      </g>
     </g>
     <g id="text_18">
      <!-- 600 -->
      <g transform="translate(568.997536 363.556562)scale(0.1 -0.1)">
       <use xlink:href="#DejaVuSans-54"/>
       <use x="63.623047" xlink:href="#DejaVuSans-48"/>
       <use x="127.246094" xlink:href="#DejaVuSans-48"/>
      </g>
     </g>
    </g>
    <g id="xtick_11">
     <g id="line2d_19">
      <g>
       <use style="stroke:#000000;stroke-width:0.8;" x="633.935523" xlink:href="#m159ebd298f" y="348.958125"/>
      </g>
     </g>
     <g id="text_19">
      <!-- 800 -->
      <g transform="translate(624.391773 363.556562)scale(0.1 -0.1)">
       <use xlink:href="#DejaVuSans-56"/>
       <use x="63.623047" xlink:href="#DejaVuSans-48"/>
       <use x="127.246094" xlink:href="#DejaVuSans-48"/>
      </g>
     </g>
    </g>
    <g id="xtick_12">
     <g id="line2d_20">
      <g>
       <use style="stroke:#000000;stroke-width:0.8;" x="689.32976" xlink:href="#m159ebd298f" y="348.958125"/>
      </g>
     </g>
     <g id="text_20">
      <!-- 1000 -->
      <g transform="translate(676.60476 363.556562)scale(0.1 -0.1)">
       <use xlink:href="#DejaVuSans-49"/>
       <use x="63.623047" xlink:href="#DejaVuSans-48"/>
       <use x="127.246094" xlink:href="#DejaVuSans-48"/>
       <use x="190.869141" xlink:href="#DejaVuSans-48"/>
      </g>
     </g>
    </g>
   </g>
   <g id="matplotlib.axis_4">
    <g id="ytick_8">
     <g id="line2d_21">
      <g>
       <use style="stroke:#000000;stroke-width:0.8;" x="398.523864" xlink:href="#m458c41ec67" y="334.13267"/>
      </g>
     </g>
     <g id="text_21">
      <!-- 0 -->
      <g transform="translate(385.161364 337.931889)scale(0.1 -0.1)">
       <use xlink:href="#DejaVuSans-48"/>
      </g>
     </g>
    </g>
    <g id="ytick_9">
     <g id="line2d_22">
      <g>
       <use style="stroke:#000000;stroke-width:0.8;" x="398.523864" xlink:href="#m458c41ec67" y="287.557208"/>
      </g>
     </g>
     <g id="text_22">
      <!-- 100 -->
      <g transform="translate(372.436364 291.356427)scale(0.1 -0.1)">
       <use xlink:href="#DejaVuSans-49"/>
       <use x="63.623047" xlink:href="#DejaVuSans-48"/>
       <use x="127.246094" xlink:href="#DejaVuSans-48"/>
      </g>
     </g>
    </g>
    <g id="ytick_10">
     <g id="line2d_23">
      <g>
       <use style="stroke:#000000;stroke-width:0.8;" x="398.523864" xlink:href="#m458c41ec67" y="240.981746"/>
      </g>
     </g>
     <g id="text_23">
      <!-- 200 -->
      <g transform="translate(372.436364 244.780964)scale(0.1 -0.1)">
       <use xlink:href="#DejaVuSans-50"/>
       <use x="63.623047" xlink:href="#DejaVuSans-48"/>
       <use x="127.246094" xlink:href="#DejaVuSans-48"/>
      </g>
     </g>
    </g>
    <g id="ytick_11">
     <g id="line2d_24">
      <g>
       <use style="stroke:#000000;stroke-width:0.8;" x="398.523864" xlink:href="#m458c41ec67" y="194.406283"/>
      </g>
     </g>
     <g id="text_24">
      <!-- 300 -->
      <g transform="translate(372.436364 198.205502)scale(0.1 -0.1)">
       <use xlink:href="#DejaVuSans-51"/>
       <use x="63.623047" xlink:href="#DejaVuSans-48"/>
       <use x="127.246094" xlink:href="#DejaVuSans-48"/>
      </g>
     </g>
    </g>
    <g id="ytick_12">
     <g id="line2d_25">
      <g>
       <use style="stroke:#000000;stroke-width:0.8;" x="398.523864" xlink:href="#m458c41ec67" y="147.830821"/>
      </g>
     </g>
     <g id="text_25">
      <!-- 400 -->
      <g transform="translate(372.436364 151.630039)scale(0.1 -0.1)">
       <use xlink:href="#DejaVuSans-52"/>
       <use x="63.623047" xlink:href="#DejaVuSans-48"/>
       <use x="127.246094" xlink:href="#DejaVuSans-48"/>
      </g>
     </g>
    </g>
    <g id="ytick_13">
     <g id="line2d_26">
      <g>
       <use style="stroke:#000000;stroke-width:0.8;" x="398.523864" xlink:href="#m458c41ec67" y="101.255358"/>
      </g>
     </g>
     <g id="text_26">
      <!-- 500 -->
      <g transform="translate(372.436364 105.054577)scale(0.1 -0.1)">
       <use xlink:href="#DejaVuSans-53"/>
       <use x="63.623047" xlink:href="#DejaVuSans-48"/>
       <use x="127.246094" xlink:href="#DejaVuSans-48"/>
      </g>
     </g>
    </g>
    <g id="ytick_14">
     <g id="line2d_27">
      <g>
       <use style="stroke:#000000;stroke-width:0.8;" x="398.523864" xlink:href="#m458c41ec67" y="54.679896"/>
      </g>
     </g>
     <g id="text_27">
      <!-- 600 -->
      <g transform="translate(372.436364 58.479114)scale(0.1 -0.1)">
       <use xlink:href="#DejaVuSans-54"/>
       <use x="63.623047" xlink:href="#DejaVuSans-48"/>
       <use x="127.246094" xlink:href="#DejaVuSans-48"/>
      </g>
     </g>
    </g>
   </g>
   <g id="line2d_28">
    <path clip-path="url(#p3fe7c80b7a)" d="M 412.358574 334.13267 
L 412.635546 333.201157 
L 412.912517 334.13267 
L 413.189488 333.20112 
L 413.466459 334.13267 
L 413.74343 333.201046 
L 414.020401 334.13267 
L 414.297373 333.200936 
L 414.574344 334.13267 
L 414.851315 333.200789 
L 415.128286 334.13267 
L 415.405257 333.200605 
L 415.682229 334.13267 
L 415.9592 333.200384 
L 416.236171 334.13267 
L 416.513142 333.200126 
L 416.790113 334.13267 
L 417.067085 333.199831 
L 417.344056 334.13267 
L 417.621027 333.199499 
L 417.897998 334.13267 
L 418.174969 333.19913 
L 418.45194 334.13267 
L 418.728912 333.198724 
L 419.005883 334.13267 
L 419.282854 333.198281 
L 419.559825 334.13267 
L 419.836796 333.1978 
L 420.113768 334.13267 
L 420.390739 333.197282 
L 420.66771 334.13267 
L 420.944681 333.196726 
L 421.221652 334.13267 
L 421.498624 333.196133 
L 421.775595 334.13267 
L 422.052566 333.195502 
L 422.329537 334.13267 
L 422.606508 333.194833 
L 422.883479 334.13267 
L 423.160451 333.194125 
L 423.437422 334.13267 
L 423.714393 333.19338 
L 423.991364 334.13267 
L 424.268335 333.192597 
L 424.545307 334.13267 
L 424.822278 333.191775 
L 425.099249 334.13267 
L 425.37622 333.190914 
L 425.653191 334.13267 
L 425.930162 333.190014 
L 426.207134 334.13267 
L 426.484105 333.189076 
L 426.761076 334.13267 
L 427.038047 333.188098 
L 427.315018 334.13267 
L 427.59199 333.187081 
L 427.868961 334.13267 
L 428.145932 333.186024 
L 428.422903 334.13267 
L 428.699874 333.184927 
L 428.976846 334.13267 
L 429.253817 333.183791 
L 429.530788 334.13267 
L 429.807759 333.182614 
L 430.08473 334.13267 
L 430.361701 333.181396 
L 430.638673 334.13267 
L 430.915644 333.180138 
L 431.192615 334.13267 
L 431.469586 333.178839 
L 431.746557 334.13267 
L 432.023529 333.177498 
L 432.3005 334.13267 
L 432.577471 333.176116 
L 432.854442 334.13267 
L 433.131413 333.174692 
L 433.408385 334.13267 
L 433.685356 333.173226 
L 433.962327 334.13267 
L 434.239298 333.171717 
L 434.516269 334.13267 
L 434.79324 333.170166 
L 435.070212 334.13267 
L 435.347183 333.168571 
L 435.624154 334.13267 
L 435.901125 333.166933 
L 436.178096 334.13267 
L 436.455068 333.165251 
L 436.732039 334.13267 
L 437.00901 333.163525 
L 437.285981 334.13267 
L 437.562952 333.161754 
L 437.839923 334.13267 
L 438.116895 333.159938 
L 438.393866 334.13267 
L 438.670837 333.158077 
L 438.947808 334.13267 
L 439.224779 333.156171 
L 439.501751 334.13267 
L 439.778722 333.154218 
L 440.055693 334.13267 
L 440.332664 333.152218 
L 440.609635 334.13267 
L 440.886607 333.150171 
L 441.163578 334.13267 
L 441.440549 333.148077 
L 441.71752 334.13267 
L 441.994491 333.145935 
L 442.271462 334.13267 
L 442.548434 333.143744 
L 442.825405 334.13267 
L 443.102376 333.141505 
L 443.379347 334.13267 
L 443.656318 333.139216 
L 443.93329 334.13267 
L 444.210261 333.136877 
L 444.487232 334.13267 
L 444.764203 333.134487 
L 445.041174 334.13267 
L 445.318146 333.132047 
L 445.595117 334.13267 
L 445.872088 333.129554 
L 446.149059 334.13267 
L 446.42603 333.12701 
L 446.703001 334.13267 
L 446.979973 333.124412 
L 447.256944 334.13267 
L 447.533915 333.121761 
L 447.810886 334.13267 
L 448.087857 333.119056 
L 448.364829 334.13267 
L 448.6418 333.116296 
L 448.918771 334.13267 
L 449.195742 333.113481 
L 449.472713 334.13267 
L 449.749684 333.11061 
L 450.026656 334.13267 
L 450.303627 333.107682 
L 450.580598 334.13267 
L 450.857569 333.104696 
L 451.13454 334.13267 
L 451.411512 333.101652 
L 451.688483 334.13267 
L 451.965454 333.09855 
L 452.242425 334.13267 
L 452.519396 333.095387 
L 452.796368 334.13267 
L 453.073339 333.092164 
L 453.35031 334.13267 
L 453.627281 333.088879 
L 453.904252 334.13267 
L 454.181223 333.085532 
L 454.458195 334.13267 
L 454.735166 333.082122 
L 455.012137 334.13267 
L 455.289108 333.078648 
L 455.566079 334.13267 
L 455.843051 333.075108 
L 456.120022 334.13267 
L 456.396993 333.071503 
L 456.673964 334.13267 
L 456.950935 333.067832 
L 457.227907 334.13267 
L 457.504878 333.064092 
L 457.781849 334.13267 
L 458.05882 333.060283 
L 458.335791 334.13267 
L 458.612762 333.056405 
L 458.889734 334.13267 
L 459.166705 333.052456 
L 459.443676 334.13267 
L 459.720647 333.048434 
L 459.997618 334.13267 
L 460.27459 333.04434 
L 460.551561 334.13267 
L 460.828532 333.040171 
L 461.105503 334.13267 
L 461.382474 333.035926 
L 461.659445 334.13267 
L 461.936417 333.031605 
L 462.213388 334.13267 
L 462.490359 333.027206 
L 462.76733 334.13267 
L 463.044301 333.022727 
L 463.321273 334.13267 
L 463.598244 333.018168 
L 463.875215 334.13267 
L 464.152186 333.013527 
L 464.429157 334.13267 
L 464.706129 333.008803 
L 464.9831 334.13267 
L 465.260071 333.003993 
L 465.537042 334.13267 
L 465.814013 332.999098 
L 466.090984 334.13267 
L 466.367956 332.994114 
L 466.644927 334.13267 
L 466.921898 332.989042 
L 467.198869 334.13267 
L 467.47584 332.983878 
L 467.752812 334.13267 
L 468.029783 332.978622 
L 468.306754 334.13267 
L 468.583725 332.973271 
L 468.860696 334.13267 
L 469.137668 332.967825 
L 469.414639 334.13267 
L 469.69161 332.96228 
L 469.968581 334.13267 
L 470.245552 332.956636 
L 470.522523 334.13267 
L 470.799495 332.95089 
L 471.076466 334.13267 
L 471.353437 332.945041 
L 471.630408 334.13267 
L 471.907379 332.939086 
L 472.184351 334.13267 
L 472.461322 332.933024 
L 472.738293 334.13267 
L 473.015264 332.926852 
L 473.292235 334.13267 
L 473.569206 332.920568 
L 473.846178 334.13267 
L 474.123149 332.91417 
L 474.40012 334.13267 
L 474.677091 332.907655 
L 474.954062 334.13267 
L 475.231034 332.901021 
L 475.508005 334.13267 
L 475.784976 332.894266 
L 476.061947 334.13267 
L 476.338918 332.887387 
L 476.61589 334.13267 
L 476.892861 332.880381 
L 477.169832 334.13267 
L 477.446803 332.873246 
L 477.723774 334.13267 
L 478.000745 332.865979 
L 478.277717 334.13267 
L 478.554688 332.858577 
L 478.831659 334.13267 
L 479.10863 332.851038 
L 479.385601 334.13267 
L 479.662573 332.843357 
L 479.939544 334.13267 
L 480.216515 332.835532 
L 480.493486 334.13267 
L 480.770457 332.82756 
L 481.047429 334.13267 
L 481.3244 332.819437 
L 481.601371 334.13267 
L 481.878342 332.811159 
L 482.155313 334.13267 
L 482.432284 332.802724 
L 482.709256 334.13267 
L 482.986227 332.794127 
L 483.263198 334.13267 
L 483.540169 332.785365 
L 483.81714 334.13267 
L 484.094112 332.776434 
L 484.371083 334.13267 
L 484.648054 332.767329 
L 484.925025 334.13267 
L 485.201996 332.758046 
L 485.478968 334.13267 
L 485.755939 332.748581 
L 486.03291 334.13267 
L 486.309881 332.73893 
L 486.586852 334.13267 
L 486.863823 332.729087 
L 487.140795 334.13267 
L 487.417766 332.719048 
L 487.694737 334.13267 
L 487.971708 332.708808 
L 488.248679 334.13267 
L 488.525651 332.698361 
L 488.802622 334.13267 
L 489.079593 332.687703 
L 489.356564 334.13267 
L 489.633535 332.676827 
L 489.910506 334.13267 
L 490.187478 332.665727 
L 490.464449 334.13267 
L 490.74142 332.654398 
L 491.018391 334.13267 
L 491.295362 332.642834 
L 491.572334 334.13267 
L 491.849305 332.631028 
L 492.126276 334.13267 
L 492.403247 332.618972 
L 492.680218 334.13267 
L 492.95719 332.606661 
L 493.234161 334.13267 
L 493.511132 332.594087 
L 493.788103 334.13267 
L 494.065074 332.581242 
L 494.342045 334.13267 
L 494.619017 332.568118 
L 494.895988 334.13267 
L 495.172959 332.554708 
L 495.44993 334.13267 
L 495.726901 332.541002 
L 496.003873 334.13267 
L 496.280844 332.526992 
L 496.557815 334.13267 
L 496.834786 332.512669 
L 497.111757 334.13267 
L 497.388729 332.498023 
L 497.6657 334.13267 
L 497.942671 332.483044 
L 498.219642 334.13267 
L 498.496613 332.467722 
L 498.773584 334.13267 
L 499.050556 332.452045 
L 499.327527 334.13267 
L 499.604498 332.436003 
L 499.881469 334.13267 
L 500.15844 332.419583 
L 500.435412 334.13267 
L 500.712383 332.402773 
L 500.989354 334.13267 
L 501.266325 332.385561 
L 501.543296 334.13267 
L 501.820267 332.367932 
L 502.097239 334.13267 
L 502.37421 332.349873 
L 502.651181 334.13267 
L 502.928152 332.331368 
L 503.205123 334.13267 
L 503.482095 332.312403 
L 503.759066 334.13267 
L 504.036037 332.29296 
L 504.313008 334.13267 
L 504.589979 332.273024 
L 504.866951 334.13267 
L 505.143922 332.252576 
L 505.420893 334.13267 
L 505.697864 332.231597 
L 505.974835 334.13267 
L 506.251806 332.210068 
L 506.528778 334.13267 
L 506.805749 332.187968 
L 507.08272 334.13267 
L 507.359691 332.165275 
L 507.636662 334.13267 
L 507.913634 332.141968 
L 508.190605 334.13267 
L 508.467576 332.11802 
L 508.744547 334.13267 
L 509.021518 332.093408 
L 509.29849 334.13267 
L 509.575461 332.068105 
L 509.852432 334.13267 
L 510.129403 332.042083 
L 510.406374 334.13267 
L 510.683345 332.015311 
L 510.960317 334.13267 
L 511.237288 331.987759 
L 511.514259 334.13267 
L 511.79123 331.959394 
L 512.068201 334.13267 
L 512.345173 331.93018 
L 512.622144 334.13267 
L 512.899115 331.900081 
L 513.176086 334.13267 
L 513.453057 331.869057 
L 513.730028 334.13267 
L 514.007 331.837067 
L 514.283971 334.13267 
L 514.560942 331.804067 
L 514.837913 334.13267 
L 515.114884 331.770009 
L 515.391856 334.13267 
L 515.668827 331.734844 
L 515.945798 334.13267 
L 516.222769 331.698519 
L 516.49974 334.13267 
L 516.776712 331.660978 
L 517.053683 334.13267 
L 517.330654 331.62216 
L 517.607625 334.13267 
L 517.884596 331.582 
L 518.161567 334.13267 
L 518.438539 331.540431 
L 518.71551 334.13267 
L 518.992481 331.497379 
L 519.269452 334.13267 
L 519.546423 331.452765 
L 519.823395 334.13267 
L 520.100366 331.406505 
L 520.377337 334.13267 
L 520.654308 331.358508 
L 520.931279 334.13267 
L 521.208251 331.308678 
L 521.485222 334.13267 
L 521.762193 331.256909 
L 522.039164 334.13267 
L 522.316135 331.203089 
L 522.593106 334.13267 
L 522.870078 331.147095 
L 523.147049 334.13267 
L 523.42402 331.088798 
L 523.700991 334.13267 
L 523.977962 331.028053 
L 524.254934 334.13267 
L 524.531905 330.964706 
L 524.808876 334.13267 
L 525.085847 330.898591 
L 525.362818 334.13267 
L 525.639789 330.829523 
L 525.916761 334.13267 
L 526.193732 330.757305 
L 526.470703 334.13267 
L 526.747674 330.68172 
L 527.024645 334.13267 
L 527.301617 330.602529 
L 527.578588 334.13267 
L 527.855559 330.519472 
L 528.13253 334.13267 
L 528.409501 330.432263 
L 528.686473 334.13267 
L 528.963444 330.340587 
L 529.240415 334.13267 
L 529.517386 330.244096 
L 529.794357 334.13267 
L 530.071328 330.142404 
L 530.3483 334.13267 
L 530.625271 330.035084 
L 530.902242 334.13267 
L 531.179213 329.921662 
L 531.456184 334.13267 
L 531.733156 329.801605 
L 532.010127 334.13267 
L 532.287098 329.674321 
L 532.564069 334.13267 
L 532.84104 329.539142 
L 533.118012 334.13267 
L 533.394983 329.395316 
L 533.671954 334.13267 
L 533.948925 329.241994 
L 534.225896 334.13267 
L 534.502867 329.078209 
L 534.779839 334.13267 
L 535.05681 328.90286 
L 535.333781 334.13267 
L 535.610752 328.714686 
L 535.887723 334.13267 
L 536.164695 328.512235 
L 536.441666 334.13267 
L 536.718637 328.293827 
L 536.995608 334.13267 
L 537.272579 328.057509 
L 537.54955 334.13267 
L 537.826522 327.800995 
L 538.103493 334.13267 
L 538.380464 327.521591 
L 538.657435 334.13267 
L 538.934406 327.216104 
L 539.211378 334.13267 
L 539.488349 326.880717 
L 539.76532 334.13267 
L 540.042291 326.510831 
L 540.319262 334.13267 
L 540.596234 326.10085 
L 540.873205 334.13267 
L 541.150176 325.643901 
L 541.427147 334.13267 
L 541.704118 325.131446 
L 541.981089 334.13267 
L 542.258061 324.55274 
L 542.535032 334.13267 
L 542.812003 323.894078 
L 543.088974 334.13267 
L 543.365945 323.13769 
L 543.642917 334.13267 
L 543.919888 322.260124 
L 544.196859 334.13267 
L 544.47383 321.229767 
L 544.750801 334.13267 
L 545.027773 320.002965 
L 545.304744 334.13267 
L 545.581715 318.517684 
L 545.858686 334.13267 
L 546.135657 316.682694 
L 546.412628 334.13267 
L 546.6896 314.358112 
L 546.966571 334.13267 
L 547.243542 311.317975 
L 547.520513 334.13267 
L 547.797484 307.171977 
L 548.074456 334.13267 
L 548.351427 301.18288 
L 548.628398 334.13267 
L 548.905369 291.770884 
L 549.18234 334.13267 
L 549.459311 274.828511 
L 549.736283 334.13267 
L 550.013254 235.295006 
L 550.290225 334.13267 
L 550.567196 37.62358 
L 550.844167 334.13267 
L 551.121139 37.62358 
L 551.39811 334.13267 
L 551.675081 235.295006 
L 551.952052 334.13267 
L 552.229023 274.828511 
L 552.505995 334.13267 
L 552.782966 291.770884 
L 553.059937 334.13267 
L 553.336908 301.18288 
L 553.613879 334.13267 
L 553.89085 307.171977 
L 554.167822 334.13267 
L 554.444793 311.317975 
L 554.721764 334.13267 
L 554.998735 314.358112 
L 555.275706 334.13267 
L 555.552678 316.682694 
L 555.829649 334.13267 
L 556.10662 318.517684 
L 556.383591 334.13267 
L 556.660562 320.002965 
L 556.937534 334.13267 
L 557.214505 321.229767 
L 557.491476 334.13267 
L 557.768447 322.260124 
L 558.045418 334.13267 
L 558.322389 323.13769 
L 558.599361 334.13267 
L 558.876332 323.894078 
L 559.153303 334.13267 
L 559.430274 324.55274 
L 559.707245 334.13267 
L 559.984217 325.131446 
L 560.261188 334.13267 
L 560.538159 325.643901 
L 560.81513 334.13267 
L 561.092101 326.10085 
L 561.369072 334.13267 
L 561.646044 326.510831 
L 561.923015 334.13267 
L 562.199986 326.880717 
L 562.476957 334.13267 
L 562.753928 327.216104 
L 563.0309 334.13267 
L 563.307871 327.521591 
L 563.584842 334.13267 
L 563.861813 327.800995 
L 564.138784 334.13267 
L 564.415756 328.057509 
L 564.692727 334.13267 
L 564.969698 328.293827 
L 565.246669 334.13267 
L 565.52364 328.512235 
L 565.800611 334.13267 
L 566.077583 328.714686 
L 566.354554 334.13267 
L 566.631525 328.90286 
L 566.908496 334.13267 
L 567.185467 329.078209 
L 567.462439 334.13267 
L 567.73941 329.241994 
L 568.016381 334.13267 
L 568.293352 329.395316 
L 568.570323 334.13267 
L 568.847295 329.539142 
L 569.124266 334.13267 
L 569.401237 329.674321 
L 569.678208 334.13267 
L 569.955179 329.801605 
L 570.23215 334.13267 
L 570.509122 329.921662 
L 570.786093 334.13267 
L 571.063064 330.035084 
L 571.340035 334.13267 
L 571.617006 330.142404 
L 571.893978 334.13267 
L 572.170949 330.244096 
L 572.44792 334.13267 
L 572.724891 330.340587 
L 573.001862 334.13267 
L 573.278833 330.432263 
L 573.555805 334.13267 
L 573.832776 330.519472 
L 574.109747 334.13267 
L 574.386718 330.602529 
L 574.663689 334.13267 
L 574.940661 330.68172 
L 575.217632 334.13267 
L 575.494603 330.757305 
L 575.771574 334.13267 
L 576.048545 330.829523 
L 576.325517 334.13267 
L 576.602488 330.898591 
L 576.879459 334.13267 
L 577.15643 330.964706 
L 577.433401 334.13267 
L 577.710372 331.028053 
L 577.987344 334.13267 
L 578.264315 331.088798 
L 578.541286 334.13267 
L 578.818257 331.147095 
L 579.095228 334.13267 
L 579.3722 331.203089 
L 579.649171 334.13267 
L 579.926142 331.256909 
L 580.203113 334.13267 
L 580.480084 331.308678 
L 580.757056 334.13267 
L 581.034027 331.358508 
L 581.310998 334.13267 
L 581.587969 331.406505 
L 581.86494 334.13267 
L 582.141911 331.452765 
L 582.418883 334.13267 
L 582.695854 331.497379 
L 582.972825 334.13267 
L 583.249796 331.540431 
L 583.526767 334.13267 
L 583.803739 331.582 
L 584.08071 334.13267 
L 584.357681 331.62216 
L 584.634652 334.13267 
L 584.911623 331.660978 
L 585.188594 334.13267 
L 585.465566 331.698519 
L 585.742537 334.13267 
L 586.019508 331.734844 
L 586.296479 334.13267 
L 586.57345 331.770009 
L 586.850422 334.13267 
L 587.127393 331.804067 
L 587.404364 334.13267 
L 587.681335 331.837067 
L 587.958306 334.13267 
L 588.235278 331.869057 
L 588.512249 334.13267 
L 588.78922 331.900081 
L 589.066191 334.13267 
L 589.343162 331.93018 
L 589.620133 334.13267 
L 589.897105 331.959394 
L 590.174076 334.13267 
L 590.451047 331.987759 
L 590.728018 334.13267 
L 591.004989 332.015311 
L 591.281961 334.13267 
L 591.558932 332.042083 
L 591.835903 334.13267 
L 592.112874 332.068105 
L 592.389845 334.13267 
L 592.666817 332.093408 
L 592.943788 334.13267 
L 593.220759 332.11802 
L 593.49773 334.13267 
L 593.774701 332.141968 
L 594.051672 334.13267 
L 594.328644 332.165275 
L 594.605615 334.13267 
L 594.882586 332.187968 
L 595.159557 334.13267 
L 595.436528 332.210068 
L 595.7135 334.13267 
L 595.990471 332.231597 
L 596.267442 334.13267 
L 596.544413 332.252576 
L 596.821384 334.13267 
L 597.098355 332.273024 
L 597.375327 334.13267 
L 597.652298 332.29296 
L 597.929269 334.13267 
L 598.20624 332.312403 
L 598.483211 334.13267 
L 598.760183 332.331368 
L 599.037154 334.13267 
L 599.314125 332.349873 
L 599.591096 334.13267 
L 599.868067 332.367932 
L 600.145039 334.13267 
L 600.42201 332.385561 
L 600.698981 334.13267 
L 600.975952 332.402773 
L 601.252923 334.13267 
L 601.529894 332.419583 
L 601.806866 334.13267 
L 602.083837 332.436003 
L 602.360808 334.13267 
L 602.637779 332.452045 
L 602.91475 334.13267 
L 603.191722 332.467722 
L 603.468693 334.13267 
L 603.745664 332.483044 
L 604.022635 334.13267 
L 604.299606 332.498023 
L 604.576578 334.13267 
L 604.853549 332.512669 
L 605.13052 334.13267 
L 605.407491 332.526992 
L 605.684462 334.13267 
L 605.961433 332.541002 
L 606.238405 334.13267 
L 606.515376 332.554708 
L 606.792347 334.13267 
L 607.069318 332.568118 
L 607.346289 334.13267 
L 607.623261 332.581242 
L 607.900232 334.13267 
L 608.177203 332.594087 
L 608.454174 334.13267 
L 608.731145 332.606661 
L 609.008116 334.13267 
L 609.285088 332.618972 
L 609.562059 334.13267 
L 609.83903 332.631028 
L 610.116001 334.13267 
L 610.392972 332.642834 
L 610.669944 334.13267 
L 610.946915 332.654398 
L 611.223886 334.13267 
L 611.500857 332.665727 
L 611.777828 334.13267 
L 612.0548 332.676827 
L 612.331771 334.13267 
L 612.608742 332.687703 
L 612.885713 334.13267 
L 613.162684 332.698361 
L 613.439655 334.13267 
L 613.716627 332.708808 
L 613.993598 334.13267 
L 614.270569 332.719048 
L 614.54754 334.13267 
L 614.824511 332.729087 
L 615.101483 334.13267 
L 615.378454 332.73893 
L 615.655425 334.13267 
L 615.932396 332.748581 
L 616.209367 334.13267 
L 616.486339 332.758046 
L 616.76331 334.13267 
L 617.040281 332.767329 
L 617.317252 334.13267 
L 617.594223 332.776434 
L 617.871194 334.13267 
L 618.148166 332.785365 
L 618.425137 334.13267 
L 618.702108 332.794127 
L 618.979079 334.13267 
L 619.25605 332.802724 
L 619.533022 334.13267 
L 619.809993 332.811159 
L 620.086964 334.13267 
L 620.363935 332.819437 
L 620.640906 334.13267 
L 620.917877 332.82756 
L 621.194849 334.13267 
L 621.47182 332.835532 
L 621.748791 334.13267 
L 622.025762 332.843357 
L 622.302733 334.13267 
L 622.579705 332.851038 
L 622.856676 334.13267 
L 623.133647 332.858577 
L 623.410618 334.13267 
L 623.687589 332.865979 
L 623.964561 334.13267 
L 624.241532 332.873246 
L 624.518503 334.13267 
L 624.795474 332.880381 
L 625.072445 334.13267 
L 625.349416 332.887387 
L 625.626388 334.13267 
L 625.903359 332.894266 
L 626.18033 334.13267 
L 626.457301 332.901021 
L 626.734272 334.13267 
L 627.011244 332.907655 
L 627.288215 334.13267 
L 627.565186 332.91417 
L 627.842157 334.13267 
L 628.119128 332.920568 
L 628.3961 334.13267 
L 628.673071 332.926852 
L 628.950042 334.13267 
L 629.227013 332.933024 
L 629.503984 334.13267 
L 629.780955 332.939086 
L 630.057927 334.13267 
L 630.334898 332.945041 
L 630.611869 334.13267 
L 630.88884 332.95089 
L 631.165811 334.13267 
L 631.442783 332.956636 
L 631.719754 334.13267 
L 631.996725 332.96228 
L 632.273696 334.13267 
L 632.550667 332.967825 
L 632.827638 334.13267 
L 633.10461 332.973271 
L 633.381581 334.13267 
L 633.658552 332.978622 
L 633.935523 334.13267 
L 634.212494 332.983878 
L 634.489466 334.13267 
L 634.766437 332.989042 
L 635.043408 334.13267 
L 635.320379 332.994114 
L 635.59735 334.13267 
L 635.874322 332.999098 
L 636.151293 334.13267 
L 636.428264 333.003993 
L 636.705235 334.13267 
L 636.982206 333.008803 
L 637.259177 334.13267 
L 637.536149 333.013527 
L 637.81312 334.13267 
L 638.090091 333.018168 
L 638.367062 334.13267 
L 638.644033 333.022727 
L 638.921005 334.13267 
L 639.197976 333.027206 
L 639.474947 334.13267 
L 639.751918 333.031605 
L 640.028889 334.13267 
L 640.305861 333.035926 
L 640.582832 334.13267 
L 640.859803 333.040171 
L 641.136774 334.13267 
L 641.413745 333.04434 
L 641.690716 334.13267 
L 641.967688 333.048434 
L 642.244659 334.13267 
L 642.52163 333.052456 
L 642.798601 334.13267 
L 643.075572 333.056405 
L 643.352544 334.13267 
L 643.629515 333.060283 
L 643.906486 334.13267 
L 644.183457 333.064092 
L 644.460428 334.13267 
L 644.737399 333.067832 
L 645.014371 334.13267 
L 645.291342 333.071503 
L 645.568313 334.13267 
L 645.845284 333.075108 
L 646.122255 334.13267 
L 646.399227 333.078648 
L 646.676198 334.13267 
L 646.953169 333.082122 
L 647.23014 334.13267 
L 647.507111 333.085532 
L 647.784083 334.13267 
L 648.061054 333.088879 
L 648.338025 334.13267 
L 648.614996 333.092164 
L 648.891967 334.13267 
L 649.168938 333.095387 
L 649.44591 334.13267 
L 649.722881 333.09855 
L 649.999852 334.13267 
L 650.276823 333.101652 
L 650.553794 334.13267 
L 650.830766 333.104696 
L 651.107737 334.13267 
L 651.384708 333.107682 
L 651.661679 334.13267 
L 651.93865 333.11061 
L 652.215622 334.13267 
L 652.492593 333.113481 
L 652.769564 334.13267 
L 653.046535 333.116296 
L 653.323506 334.13267 
L 653.600477 333.119056 
L 653.877449 334.13267 
L 654.15442 333.121761 
L 654.431391 334.13267 
L 654.708362 333.124412 
L 654.985333 334.13267 
L 655.262305 333.12701 
L 655.539276 334.13267 
L 655.816247 333.129554 
L 656.093218 334.13267 
L 656.370189 333.132047 
L 656.64716 334.13267 
L 656.924132 333.134487 
L 657.201103 334.13267 
L 657.478074 333.136877 
L 657.755045 334.13267 
L 658.032016 333.139216 
L 658.308988 334.13267 
L 658.585959 333.141505 
L 658.86293 334.13267 
L 659.139901 333.143744 
L 659.416872 334.13267 
L 659.693844 333.145935 
L 659.970815 334.13267 
L 660.247786 333.148077 
L 660.524757 334.13267 
L 660.801728 333.150171 
L 661.078699 334.13267 
L 661.355671 333.152218 
L 661.632642 334.13267 
L 661.909613 333.154218 
L 662.186584 334.13267 
L 662.463555 333.156171 
L 662.740527 334.13267 
L 663.017498 333.158077 
L 663.294469 334.13267 
L 663.57144 333.159938 
L 663.848411 334.13267 
L 664.125383 333.161754 
L 664.402354 334.13267 
L 664.679325 333.163525 
L 664.956296 334.13267 
L 665.233267 333.165251 
L 665.510238 334.13267 
L 665.78721 333.166933 
L 666.064181 334.13267 
L 666.341152 333.168571 
L 666.618123 334.13267 
L 666.895094 333.170166 
L 667.172066 334.13267 
L 667.449037 333.171717 
L 667.726008 334.13267 
L 668.002979 333.173226 
L 668.27995 334.13267 
L 668.556921 333.174692 
L 668.833893 334.13267 
L 669.110864 333.176116 
L 669.387835 334.13267 
L 669.664806 333.177498 
L 669.941777 334.13267 
L 670.218749 333.178839 
L 670.49572 334.13267 
L 670.772691 333.180138 
L 671.049662 334.13267 
L 671.326633 333.181396 
L 671.603605 334.13267 
L 671.880576 333.182614 
L 672.157547 334.13267 
L 672.434518 333.183791 
L 672.711489 334.13267 
L 672.98846 333.184927 
L 673.265432 334.13267 
L 673.542403 333.186024 
L 673.819374 334.13267 
L 674.096345 333.187081 
L 674.373316 334.13267 
L 674.650288 333.188098 
L 674.927259 334.13267 
L 675.20423 333.189076 
L 675.481201 334.13267 
L 675.758172 333.190014 
L 676.035144 334.13267 
L 676.312115 333.190914 
L 676.589086 334.13267 
L 676.866057 333.191775 
L 677.143028 334.13267 
L 677.419999 333.192597 
L 677.696971 334.13267 
L 677.973942 333.19338 
L 678.250913 334.13267 
L 678.527884 333.194125 
L 678.804855 334.13267 
L 679.081827 333.194833 
L 679.358798 334.13267 
L 679.635769 333.195502 
L 679.91274 334.13267 
L 680.189711 333.196133 
L 680.466682 334.13267 
L 680.743654 333.196726 
L 681.020625 334.13267 
L 681.297596 333.197282 
L 681.574567 334.13267 
L 681.851538 333.1978 
L 682.12851 334.13267 
L 682.405481 333.198281 
L 682.682452 334.13267 
L 682.959423 333.198724 
L 683.236394 334.13267 
L 683.513366 333.19913 
L 683.790337 334.13267 
L 684.067308 333.199499 
L 684.344279 334.13267 
L 684.62125 333.199831 
L 684.898221 334.13267 
L 685.175193 333.200126 
L 685.452164 334.13267 
L 685.729135 333.200384 
L 686.006106 334.13267 
L 686.283077 333.200605 
L 686.560049 334.13267 
L 686.83702 333.200789 
L 687.113991 334.13267 
L 687.390962 333.200936 
L 687.667933 334.13267 
L 687.944905 333.201046 
L 688.221876 334.13267 
L 688.498847 333.20112 
L 688.775818 334.13267 
L 689.052789 333.201157 
L 689.052789 333.201157 
" style="fill:none;stroke:#1f77b4;stroke-linecap:square;stroke-width:1.5;"/>
   </g>
   <g id="patch_8">
    <path d="M 398.523864 348.958125 
L 398.523864 22.798125 
" style="fill:none;stroke:#000000;stroke-linecap:square;stroke-linejoin:miter;stroke-width:0.8;"/>
   </g>
   <g id="patch_9">
    <path d="M 702.8875 348.958125 
L 702.8875 22.798125 
" style="fill:none;stroke:#000000;stroke-linecap:square;stroke-linejoin:miter;stroke-width:0.8;"/>
   </g>
   <g id="patch_10">
    <path d="M 398.523864 348.958125 
L 702.8875 348.958125 
" style="fill:none;stroke:#000000;stroke-linecap:square;stroke-linejoin:miter;stroke-width:0.8;"/>
   </g>
   <g id="patch_11">
    <path d="M 398.523864 22.798125 
L 702.8875 22.798125 
" style="fill:none;stroke:#000000;stroke-linecap:square;stroke-linejoin:miter;stroke-width:0.8;"/>
   </g>
   <g id="text_28">
    <!-- La frquence nulle est au milieu. -->
    <defs>
     <path d="M 37.109375 75.984375 
L 37.109375 68.5 
L 28.515625 68.5 
Q 23.6875 68.5 21.796875 66.546875 
Q 19.921875 64.59375 19.921875 59.515625 
L 19.921875 54.6875 
L 34.71875 54.6875 
L 34.71875 47.703125 
L 19.921875 47.703125 
L 19.921875 0 
L 10.890625 0 
L 10.890625 47.703125 
L 2.296875 47.703125 
L 2.296875 54.6875 
L 10.890625 54.6875 
L 10.890625 58.5 
Q 10.890625 67.625 15.140625 71.796875 
Q 19.390625 75.984375 28.609375 75.984375 
z
" id="DejaVuSans-102"/>
     <path d="M 56.203125 29.59375 
L 56.203125 25.203125 
L 14.890625 25.203125 
Q 15.484375 15.921875 20.484375 11.0625 
Q 25.484375 6.203125 34.421875 6.203125 
Q 39.59375 6.203125 44.453125 7.46875 
Q 49.3125 8.734375 54.109375 11.28125 
L 54.109375 2.78125 
Q 49.265625 0.734375 44.1875 -0.34375 
Q 39.109375 -1.421875 33.890625 -1.421875 
Q 20.796875 -1.421875 13.15625 6.1875 
Q 5.515625 13.8125 5.515625 26.8125 
Q 5.515625 40.234375 12.765625 48.109375 
Q 20.015625 56 32.328125 56 
Q 43.359375 56 49.78125 48.890625 
Q 56.203125 41.796875 56.203125 29.59375 
z
M 47.21875 32.234375 
Q 47.125 39.59375 43.09375 43.984375 
Q 39.0625 48.390625 32.421875 48.390625 
Q 24.90625 48.390625 20.390625 44.140625 
Q 15.875 39.890625 15.1875 32.171875 
z
M 38.578125 79.984375 
L 48.296875 79.984375 
L 32.375 61.625 
L 24.90625 61.625 
z
" id="DejaVuSans-233"/>
     <path d="M 14.796875 27.296875 
Q 14.796875 17.390625 18.875 11.75 
Q 22.953125 6.109375 30.078125 6.109375 
Q 37.203125 6.109375 41.296875 11.75 
Q 45.40625 17.390625 45.40625 27.296875 
Q 45.40625 37.203125 41.296875 42.84375 
Q 37.203125 48.484375 30.078125 48.484375 
Q 22.953125 48.484375 18.875 42.84375 
Q 14.796875 37.203125 14.796875 27.296875 
z
M 45.40625 8.203125 
Q 42.578125 3.328125 38.25 0.953125 
Q 33.9375 -1.421875 27.875 -1.421875 
Q 17.96875 -1.421875 11.734375 6.484375 
Q 5.515625 14.40625 5.515625 27.296875 
Q 5.515625 40.1875 11.734375 48.09375 
Q 17.96875 56 27.875 56 
Q 33.9375 56 38.25 53.625 
Q 42.578125 51.265625 45.40625 46.390625 
L 45.40625 54.6875 
L 54.390625 54.6875 
L 54.390625 -20.796875 
L 45.40625 -20.796875 
z
" id="DejaVuSans-113"/>
     <path d="M 52 44.1875 
Q 55.375 50.25 60.0625 53.125 
Q 64.75 56 71.09375 56 
Q 79.640625 56 84.28125 50.015625 
Q 88.921875 44.046875 88.921875 33.015625 
L 88.921875 0 
L 79.890625 0 
L 79.890625 32.71875 
Q 79.890625 40.578125 77.09375 44.375 
Q 74.3125 48.1875 68.609375 48.1875 
Q 61.625 48.1875 57.5625 43.546875 
Q 53.515625 38.921875 53.515625 30.90625 
L 53.515625 0 
L 44.484375 0 
L 44.484375 32.71875 
Q 44.484375 40.625 41.703125 44.40625 
Q 38.921875 48.1875 33.109375 48.1875 
Q 26.21875 48.1875 22.15625 43.53125 
Q 18.109375 38.875 18.109375 30.90625 
L 18.109375 0 
L 9.078125 0 
L 9.078125 54.6875 
L 18.109375 54.6875 
L 18.109375 46.1875 
Q 21.1875 51.21875 25.484375 53.609375 
Q 29.78125 56 35.6875 56 
Q 41.65625 56 45.828125 52.96875 
Q 50 49.953125 52 44.1875 
z
" id="DejaVuSans-109"/>
     <path d="M 10.6875 12.40625 
L 21 12.40625 
L 21 0 
L 10.6875 0 
z
" id="DejaVuSans-46"/>
    </defs>
    <g transform="translate(452.392869 16.798125)scale(0.12 -0.12)">
     <use xlink:href="#DejaVuSans-76"/>
     <use x="55.712891" xlink:href="#DejaVuSans-97"/>
     <use x="116.992188" xlink:href="#DejaVuSans-32"/>
     <use x="148.779297" xlink:href="#DejaVuSans-102"/>
     <use x="183.984375" xlink:href="#DejaVuSans-114"/>
     <use x="222.847656" xlink:href="#DejaVuSans-233"/>
     <use x="284.371094" xlink:href="#DejaVuSans-113"/>
     <use x="347.847656" xlink:href="#DejaVuSans-117"/>
     <use x="411.226562" xlink:href="#DejaVuSans-101"/>
     <use x="472.75" xlink:href="#DejaVuSans-110"/>
     <use x="536.128906" xlink:href="#DejaVuSans-99"/>
     <use x="591.109375" xlink:href="#DejaVuSans-101"/>
     <use x="652.632812" xlink:href="#DejaVuSans-32"/>
     <use x="684.419922" xlink:href="#DejaVuSans-110"/>
     <use x="747.798828" xlink:href="#DejaVuSans-117"/>
     <use x="811.177734" xlink:href="#DejaVuSans-108"/>
     <use x="838.960938" xlink:href="#DejaVuSans-108"/>
     <use x="866.744141" xlink:href="#DejaVuSans-101"/>
     <use x="928.267578" xlink:href="#DejaVuSans-32"/>
     <use x="960.054688" xlink:href="#DejaVuSans-101"/>
     <use x="1021.578125" xlink:href="#DejaVuSans-115"/>
     <use x="1073.677734" xlink:href="#DejaVuSans-116"/>
     <use x="1112.886719" xlink:href="#DejaVuSans-32"/>
     <use x="1144.673828" xlink:href="#DejaVuSans-97"/>
     <use x="1205.953125" xlink:href="#DejaVuSans-117"/>
     <use x="1269.332031" xlink:href="#DejaVuSans-32"/>
     <use x="1301.119141" xlink:href="#DejaVuSans-109"/>
     <use x="1398.53125" xlink:href="#DejaVuSans-105"/>
     <use x="1426.314453" xlink:href="#DejaVuSans-108"/>
     <use x="1454.097656" xlink:href="#DejaVuSans-105"/>
     <use x="1481.880859" xlink:href="#DejaVuSans-101"/>
     <use x="1543.404297" xlink:href="#DejaVuSans-117"/>
     <use x="1606.783203" xlink:href="#DejaVuSans-46"/>
    </g>
   </g>
  </g>
 </g>
 <defs>
  <clipPath id="p689294b579">
   <rect height="326.16" width="304.363636" x="33.2875" y="22.798125"/>
  </clipPath>
  <clipPath id="p3fe7c80b7a">
   <rect height="326.16" width="304.363636" x="398.523864" y="22.798125"/>
  </clipPath>
 </defs>
</svg>
